<svg width="1346" height="74" viewBox="0 0 1346 74" fill="none" xmlns="http://www.w3.org/2000/svg">
<path d="M24.3594 45.0469H43.4844L36.4531 29.3906C36.0469 28.3906 35.625 27.25 35.1875 25.9688C34.75 24.6562 34.3125 23.2031 33.875 21.6094C33.5 23.1094 33.0938 24.5156 32.6562 25.8281C32.25 27.1094 31.8281 28.2969 31.3906 29.3906L24.3594 45.0469ZM55.2031 72L47.4219 54.3281H20.2344L12.2656 72H0.546875L33.7812 0.65625L66.9688 72H55.2031ZM157.484 20.0625C154.328 17.375 150.984 15.3594 147.453 14.0156C143.953 12.6719 140.266 12 136.391 12C128.891 12 122.781 14.4062 118.062 19.2188C113.375 24.0312 111.031 30.2656 111.031 37.9219C111.031 45.3281 113.312 51.4375 117.875 56.25C122.469 61.0625 128.25 63.4688 135.219 63.4688C139.281 63.4688 143.141 62.75 146.797 61.3125C150.484 59.875 154.016 57.7031 157.391 54.7969V67.4062C154.391 69.5625 151.125 71.1719 147.594 72.2344C144.062 73.2969 140.234 73.8281 136.109 73.8281C130.859 73.8281 126 72.9688 121.531 71.25C117.094 69.5312 113.188 67 109.812 63.6562C106.469 60.375 103.891 56.5156 102.078 52.0781C100.297 47.6094 99.4062 42.8594 99.4062 37.8281C99.4062 32.7969 100.297 28.0781 102.078 23.6719C103.891 19.2344 106.5 15.3438 109.906 12C113.312 8.625 117.219 6.07813 121.625 4.35938C126.031 2.60938 130.797 1.73438 135.922 1.73438C139.953 1.73438 143.797 2.32813 147.453 3.51562C151.109 4.67188 154.656 6.4375 158.094 8.8125L157.484 20.0625ZM230.047 37.8281C230.047 34.3594 229.406 31.0625 228.125 27.9375C226.875 24.8125 225.062 22.0312 222.688 19.5938C220.375 17.1875 217.688 15.3438 214.625 14.0625C211.594 12.75 208.391 12.0938 205.016 12.0938C201.641 12.0938 198.422 12.7344 195.359 14.0156C192.328 15.2969 189.625 17.1562 187.25 19.5938C184.875 22 183.062 24.7656 181.812 27.8906C180.562 31.0156 179.938 34.3281 179.938 37.8281C179.938 41.2969 180.562 44.5781 181.812 47.6719C183.062 50.7656 184.875 53.5312 187.25 55.9688C189.625 58.4062 192.328 60.2656 195.359 61.5469C198.391 62.8281 201.609 63.4688 205.016 63.4688C208.359 63.4688 211.531 62.8281 214.531 61.5469C217.562 60.2656 220.281 58.4062 222.688 55.9688C225.062 53.5312 226.875 50.7656 228.125 47.6719C229.406 44.5469 230.047 41.2656 230.047 37.8281ZM241.672 37.8281C241.672 42.7031 240.75 47.3125 238.906 51.6562C237.094 56 234.438 59.875 230.938 63.2812C227.406 66.6875 223.422 69.2969 218.984 71.1094C214.547 72.9219 209.891 73.8281 205.016 73.8281C200.078 73.8281 195.359 72.9219 190.859 71.1094C186.391 69.2656 182.438 66.6562 179 63.2812C175.5 59.875 172.844 56.0156 171.031 51.7031C169.219 47.3906 168.312 42.7656 168.312 37.8281C168.312 32.9219 169.219 28.2969 171.031 23.9531C172.844 19.6094 175.5 15.7188 179 12.2812C182.5 8.875 186.469 6.28125 190.906 4.5C195.344 2.71875 200.047 1.82812 205.016 1.82812C209.953 1.82812 214.625 2.71875 219.031 4.5C223.469 6.28125 227.438 8.875 230.938 12.2812C234.438 15.75 237.094 19.6719 238.906 24.0469C240.75 28.3906 241.672 32.9844 241.672 37.8281ZM254.469 72V3.375H265.625V62.0156H290.562V72H254.469ZM299.656 72V3.375H310.812V62.0156H335.75V72H299.656ZM359.328 45.0469H378.453L371.422 29.3906C371.016 28.3906 370.594 27.25 370.156 25.9688C369.719 24.6562 369.281 23.2031 368.844 21.6094C368.469 23.1094 368.062 24.5156 367.625 25.8281C367.219 27.1094 366.797 28.2969 366.359 29.3906L359.328 45.0469ZM390.172 72L382.391 54.3281H355.203L347.234 72H335.516L368.75 0.65625L401.938 72H390.172ZM444.734 36.8438H471.922C471.922 37.3125 471.938 37.9688 471.969 38.8125C472.062 41.0312 472.109 42.5312 472.109 43.3125C472.109 52.9688 469.344 60.4688 463.812 65.8125C458.281 71.1562 450.484 73.8281 440.422 73.8281C434.797 73.8281 429.781 73 425.375 71.3438C420.969 69.6875 417.109 67.1875 413.797 63.8438C410.547 60.5312 408.047 56.6406 406.297 52.1719C404.578 47.7031 403.719 42.9219 403.719 37.8281C403.719 32.6406 404.594 27.8594 406.344 23.4844C408.125 19.1094 410.75 15.25 414.219 11.9062C417.562 8.625 421.484 6.125 425.984 4.40625C430.484 2.6875 435.297 1.82812 440.422 1.82812C445.828 1.82812 450.656 2.8125 454.906 4.78125C459.188 6.75 463 9.76562 466.344 13.8281L458.188 19.9688C455.875 17.2812 453.266 15.2812 450.359 13.9688C447.453 12.6562 444.203 12 440.609 12C433.172 12 427.094 14.3906 422.375 19.1719C417.688 23.9219 415.344 30.1094 415.344 37.7344C415.344 45.4844 417.688 51.7812 422.375 56.625C427.094 61.4375 433.203 63.8438 440.703 63.8438C447.078 63.8438 452.094 62.3594 455.75 59.3906C459.406 56.4219 461.234 52.375 461.234 47.25V46.2656H444.734V36.8438ZM483.875 72V3.375H522.172V12.8438H495.031V30.0469H522.172V39.8438H495.031V62.0156H522.172V72H483.875ZM622.672 37.8281C622.672 34.3594 622.031 31.0625 620.75 27.9375C619.5 24.8125 617.688 22.0312 615.312 19.5938C613 17.1875 610.312 15.3438 607.25 14.0625C604.219 12.75 601.016 12.0938 597.641 12.0938C594.266 12.0938 591.047 12.7344 587.984 14.0156C584.953 15.2969 582.25 17.1562 579.875 19.5938C577.5 22 575.688 24.7656 574.438 27.8906C573.188 31.0156 572.562 34.3281 572.562 37.8281C572.562 41.2969 573.188 44.5781 574.438 47.6719C575.688 50.7656 577.5 53.5312 579.875 55.9688C582.25 58.4062 584.953 60.2656 587.984 61.5469C591.016 62.8281 594.234 63.4688 597.641 63.4688C600.984 63.4688 604.156 62.8281 607.156 61.5469C610.188 60.2656 612.906 58.4062 615.312 55.9688C617.688 53.5312 619.5 50.7656 620.75 47.6719C622.031 44.5469 622.672 41.2656 622.672 37.8281ZM634.297 37.8281C634.297 42.7031 633.375 47.3125 631.531 51.6562C629.719 56 627.062 59.875 623.562 63.2812C620.031 66.6875 616.047 69.2969 611.609 71.1094C607.172 72.9219 602.516 73.8281 597.641 73.8281C592.703 73.8281 587.984 72.9219 583.484 71.1094C579.016 69.2656 575.062 66.6562 571.625 63.2812C568.125 59.875 565.469 56.0156 563.656 51.7031C561.844 47.3906 560.938 42.7656 560.938 37.8281C560.938 32.9219 561.844 28.2969 563.656 23.9531C565.469 19.6094 568.125 15.7188 571.625 12.2812C575.125 8.875 579.094 6.28125 583.531 4.5C587.969 2.71875 592.672 1.82812 597.641 1.82812C602.578 1.82812 607.25 2.71875 611.656 4.5C616.094 6.28125 620.062 8.875 623.562 12.2812C627.062 15.75 629.719 19.6719 631.531 24.0469C633.375 28.3906 634.297 32.9844 634.297 37.8281ZM647.094 72V3.375H685.391V12.8438H658.25V29.9531H685.391V39.75H658.25V72H647.094ZM726.5 72V3.375H737.656V62.0156H762.594V72H726.5ZM771.875 72V3.375H783.031V72H771.875ZM799.062 72V3.375H837.359V12.8438H810.219V29.9531H837.359V39.75H810.219V72H799.062ZM849.5 72V3.375H887.797V12.8438H860.656V30.0469H887.797V39.8438H860.656V62.0156H887.797V72H849.5ZM896.75 4.6875H904.438V30.7969H896.75V4.6875ZM912.312 58.2656L921.219 54.1406C922.062 57.2031 923.609 59.5469 925.859 61.1719C928.109 62.7656 930.984 63.5625 934.484 63.5625C937.797 63.5625 940.422 62.6406 942.359 60.7969C944.328 58.9531 945.312 56.4844 945.312 53.3906C945.312 49.3594 941.969 45.7656 935.281 42.6094C934.344 42.1406 933.625 41.7969 933.125 41.5781C925.562 37.8906 920.516 34.5625 917.984 31.5938C915.484 28.5938 914.234 24.9375 914.234 20.625C914.234 15.0312 916.125 10.5 919.906 7.03125C923.719 3.5625 928.703 1.82812 934.859 1.82812C939.922 1.82812 944.156 2.8125 947.562 4.78125C950.969 6.71875 953.328 9.51562 954.641 13.1719L945.922 17.6719C944.547 15.5156 943.031 13.9375 941.375 12.9375C939.75 11.9375 937.875 11.4375 935.75 11.4375C932.75 11.4375 930.359 12.2188 928.578 13.7812C926.828 15.3438 925.953 17.4375 925.953 20.0625C925.953 24.1875 929.828 28.0312 937.578 31.5938C938.172 31.875 938.641 32.0938 938.984 32.25C945.766 35.375 950.422 38.4375 952.953 41.4375C955.484 44.4062 956.75 48.125 956.75 52.5938C956.75 59.0938 954.703 64.2656 950.609 68.1094C946.516 71.9219 940.984 73.8281 934.016 73.8281C928.172 73.8281 923.375 72.4844 919.625 69.7969C915.906 67.1094 913.469 63.2656 912.312 58.2656ZM1009.06 61.9219H1018.44C1023.59 61.9219 1027.45 61.5781 1030.02 60.8906C1032.61 60.2031 1034.86 59.0469 1036.77 57.4219C1039.36 55.2031 1041.3 52.4531 1042.58 49.1719C1043.89 45.8594 1044.55 42.0156 1044.55 37.6406C1044.55 33.2656 1043.89 29.4375 1042.58 26.1562C1041.3 22.8438 1039.36 20.0781 1036.77 17.8594C1034.83 16.2344 1032.5 15.0781 1029.78 14.3906C1027.09 13.7031 1022.88 13.3594 1017.12 13.3594H1013.09H1009.06V61.9219ZM997.906 72V3.375H1012.95C1022.73 3.375 1029.61 3.875 1033.58 4.875C1037.58 5.84375 1041.08 7.48438 1044.08 9.79688C1048.05 12.8281 1051.05 16.7188 1053.08 21.4688C1055.14 26.2188 1056.17 31.6406 1056.17 37.7344C1056.17 43.8281 1055.14 49.2344 1053.08 53.9531C1051.05 58.6406 1048.05 62.5156 1044.08 65.5781C1041.08 67.8906 1037.66 69.5469 1033.81 70.5469C1030 71.5156 1024.05 72 1015.95 72H1012.95H997.906ZM1068.97 72V3.375H1107.27V12.8438H1080.12V30.0469H1107.27V39.8438H1080.12V62.0156H1107.27V72H1068.97ZM1116.12 58.2656L1125.03 54.1406C1125.88 57.2031 1127.42 59.5469 1129.67 61.1719C1131.92 62.7656 1134.8 63.5625 1138.3 63.5625C1141.61 63.5625 1144.23 62.6406 1146.17 60.7969C1148.14 58.9531 1149.12 56.4844 1149.12 53.3906C1149.12 49.3594 1145.78 45.7656 1139.09 42.6094C1138.16 42.1406 1137.44 41.7969 1136.94 41.5781C1129.38 37.8906 1124.33 34.5625 1121.8 31.5938C1119.3 28.5938 1118.05 24.9375 1118.05 20.625C1118.05 15.0312 1119.94 10.5 1123.72 7.03125C1127.53 3.5625 1132.52 1.82812 1138.67 1.82812C1143.73 1.82812 1147.97 2.8125 1151.38 4.78125C1154.78 6.71875 1157.14 9.51562 1158.45 13.1719L1149.73 17.6719C1148.36 15.5156 1146.84 13.9375 1145.19 12.9375C1143.56 11.9375 1141.69 11.4375 1139.56 11.4375C1136.56 11.4375 1134.17 12.2188 1132.39 13.7812C1130.64 15.3438 1129.77 17.4375 1129.77 20.0625C1129.77 24.1875 1133.64 28.0312 1141.39 31.5938C1141.98 31.875 1142.45 32.0938 1142.8 32.25C1149.58 35.375 1154.23 38.4375 1156.77 41.4375C1159.3 44.4062 1160.56 48.125 1160.56 52.5938C1160.56 59.0938 1158.52 64.2656 1154.42 68.1094C1150.33 71.9219 1144.8 73.8281 1137.83 73.8281C1131.98 73.8281 1127.19 72.4844 1123.44 69.7969C1119.72 67.1094 1117.28 63.2656 1116.12 58.2656ZM1172.94 72V3.375H1184.09V72H1172.94ZM1211.28 32.625H1213.3C1219.2 32.625 1223.12 31.9375 1225.06 30.5625C1227 29.1875 1227.97 26.75 1227.97 23.25C1227.97 19.4688 1226.92 16.8125 1224.83 15.2812C1222.77 13.7188 1218.92 12.9375 1213.3 12.9375H1211.28V32.625ZM1210.58 41.2969V72H1200.12V3.375H1215.69C1220.25 3.375 1223.78 3.67187 1226.28 4.26562C1228.81 4.85938 1230.97 5.84375 1232.75 7.21875C1234.88 8.875 1236.52 11.0156 1237.67 13.6406C1238.83 16.2656 1239.41 19.1406 1239.41 22.2656C1239.41 27.7656 1238.08 32.0781 1235.42 35.2031C1232.77 38.2969 1228.84 40.1562 1223.66 40.7812L1247.28 72H1234.67L1211.84 41.2969H1210.58ZM1253.94 72V3.375H1292.23V12.8438H1265.09V30.0469H1292.23V39.8438H1265.09V62.0156H1292.23V72H1253.94ZM1301.09 58.2656L1310 54.1406C1310.84 57.2031 1312.39 59.5469 1314.64 61.1719C1316.89 62.7656 1319.77 63.5625 1323.27 63.5625C1326.58 63.5625 1329.2 62.6406 1331.14 60.7969C1333.11 58.9531 1334.09 56.4844 1334.09 53.3906C1334.09 49.3594 1330.75 45.7656 1324.06 42.6094C1323.12 42.1406 1322.41 41.7969 1321.91 41.5781C1314.34 37.8906 1309.3 34.5625 1306.77 31.5938C1304.27 28.5938 1303.02 24.9375 1303.02 20.625C1303.02 15.0312 1304.91 10.5 1308.69 7.03125C1312.5 3.5625 1317.48 1.82812 1323.64 1.82812C1328.7 1.82812 1332.94 2.8125 1336.34 4.78125C1339.75 6.71875 1342.11 9.51562 1343.42 13.1719L1334.7 17.6719C1333.33 15.5156 1331.81 13.9375 1330.16 12.9375C1328.53 11.9375 1326.66 11.4375 1324.53 11.4375C1321.53 11.4375 1319.14 12.2188 1317.36 13.7812C1315.61 15.3438 1314.73 17.4375 1314.73 20.0625C1314.73 24.1875 1318.61 28.0312 1326.36 31.5938C1326.95 31.875 1327.42 32.0938 1327.77 32.25C1334.55 35.375 1339.2 38.4375 1341.73 41.4375C1344.27 44.4062 1345.53 48.125 1345.53 52.5938C1345.53 59.0938 1343.48 64.2656 1339.39 68.1094C1335.3 71.9219 1329.77 73.8281 1322.8 73.8281C1316.95 73.8281 1312.16 72.4844 1308.41 69.7969C1304.69 67.1094 1302.25 63.2656 1301.09 58.2656Z" fill="white"/>
</svg>
