<svg width="833" height="75" viewBox="0 0 833 75" fill="none" xmlns="http://www.w3.org/2000/svg">
<path d="M0.875 72V3.375H39.1719V12.8438H12.0312V30.0469H39.1719V39.8438H12.0312V62.0156H39.1719V72H0.875ZM66.4531 45.0469H85.5781L78.5469 29.3906C78.1406 28.3906 77.7188 27.25 77.2812 25.9688C76.8438 24.6562 76.4062 23.2031 75.9688 21.6094C75.5938 23.1094 75.1875 24.5156 74.75 25.8281C74.3438 27.1094 73.9219 28.2969 73.4844 29.3906L66.4531 45.0469ZM97.2969 72L89.5156 54.3281H62.3281L54.3594 72H42.6406L75.875 0.65625L109.062 72H97.2969ZM111.594 58.2656L120.5 54.1406C121.344 57.2031 122.891 59.5469 125.141 61.1719C127.391 62.7656 130.266 63.5625 133.766 63.5625C137.078 63.5625 139.703 62.6406 141.641 60.7969C143.609 58.9531 144.594 56.4844 144.594 53.3906C144.594 49.3594 141.25 45.7656 134.562 42.6094C133.625 42.1406 132.906 41.7969 132.406 41.5781C124.844 37.8906 119.797 34.5625 117.266 31.5938C114.766 28.5938 113.516 24.9375 113.516 20.625C113.516 15.0312 115.406 10.5 119.188 7.03125C123 3.5625 127.984 1.82812 134.141 1.82812C139.203 1.82812 143.438 2.8125 146.844 4.78125C150.25 6.71875 152.609 9.51562 153.922 13.1719L145.203 17.6719C143.828 15.5156 142.312 13.9375 140.656 12.9375C139.031 11.9375 137.156 11.4375 135.031 11.4375C132.031 11.4375 129.641 12.2188 127.859 13.7812C126.109 15.3438 125.234 17.4375 125.234 20.0625C125.234 24.1875 129.109 28.0312 136.859 31.5938C137.453 31.875 137.922 32.0938 138.266 32.25C145.047 35.375 149.703 38.4375 152.234 41.4375C154.766 44.4062 156.031 48.125 156.031 52.5938C156.031 59.0938 153.984 64.2656 149.891 68.1094C145.797 71.9219 140.266 73.8281 133.297 73.8281C127.453 73.8281 122.656 72.4844 118.906 69.7969C115.188 67.1094 112.75 63.2656 111.594 58.2656ZM190.391 12.8438V72H179.234V12.8438H161V3.375H208.531V12.8438H190.391ZM267.828 74.6719L237.219 3.375H248.797L264.172 39.9375C265.078 42.0625 265.828 44.0312 266.422 45.8438C267.016 47.625 267.484 49.3281 267.828 50.9531C268.234 49.2344 268.75 47.4531 269.375 45.6094C270 43.7656 270.734 41.875 271.578 39.9375L286.906 3.375H298.438L267.828 74.6719ZM305.562 72V3.375H316.719V72H305.562ZM332.75 72V3.375H371.047V12.8438H343.906V30.0469H371.047V39.8438H343.906V62.0156H371.047V72H332.75ZM375.688 3.375H386.703L399.688 38.0156C400.531 40.2969 401.234 42.2969 401.797 44.0156C402.391 45.7344 402.906 47.3438 403.344 48.8438C404.438 45.2188 405.578 41.6719 406.766 38.2031C406.922 37.7656 407.031 37.4688 407.094 37.3125L420.875 0.65625L435.406 38.0156C436.094 39.8281 436.734 41.6406 437.328 43.4531C437.953 45.2656 438.531 47.0938 439.062 48.9375C439.375 47.5312 439.797 45.9844 440.328 44.2969C440.859 42.6094 441.547 40.6094 442.391 38.2969L455.281 3.375H466.391L439.812 74.6719L424.156 35.5312C423.469 33.7812 422.844 32.1094 422.281 30.5156C421.719 28.8906 421.219 27.3594 420.781 25.9219C420.25 27.7656 419.719 29.5 419.188 31.125C418.656 32.7188 418.109 34.25 417.547 35.7188L402.172 74.6719L375.688 3.375ZM503 72V3.375H514.156V28.6875H547.906V3.375H559.062V72H547.906V38.6719H514.156V72H503ZM633.547 37.8281C633.547 34.3594 632.906 31.0625 631.625 27.9375C630.375 24.8125 628.562 22.0312 626.188 19.5938C623.875 17.1875 621.188 15.3438 618.125 14.0625C615.094 12.75 611.891 12.0938 608.516 12.0938C605.141 12.0938 601.922 12.7344 598.859 14.0156C595.828 15.2969 593.125 17.1562 590.75 19.5938C588.375 22 586.562 24.7656 585.312 27.8906C584.062 31.0156 583.438 34.3281 583.438 37.8281C583.438 41.2969 584.062 44.5781 585.312 47.6719C586.562 50.7656 588.375 53.5312 590.75 55.9688C593.125 58.4062 595.828 60.2656 598.859 61.5469C601.891 62.8281 605.109 63.4688 608.516 63.4688C611.859 63.4688 615.031 62.8281 618.031 61.5469C621.062 60.2656 623.781 58.4062 626.188 55.9688C628.562 53.5312 630.375 50.7656 631.625 47.6719C632.906 44.5469 633.547 41.2656 633.547 37.8281ZM645.172 37.8281C645.172 42.7031 644.25 47.3125 642.406 51.6562C640.594 56 637.938 59.875 634.438 63.2812C630.906 66.6875 626.922 69.2969 622.484 71.1094C618.047 72.9219 613.391 73.8281 608.516 73.8281C603.578 73.8281 598.859 72.9219 594.359 71.1094C589.891 69.2656 585.938 66.6562 582.5 63.2812C579 59.875 576.344 56.0156 574.531 51.7031C572.719 47.3906 571.812 42.7656 571.812 37.8281C571.812 32.9219 572.719 28.2969 574.531 23.9531C576.344 19.6094 579 15.7188 582.5 12.2812C586 8.875 589.969 6.28125 594.406 4.5C598.844 2.71875 603.547 1.82812 608.516 1.82812C613.453 1.82812 618.125 2.71875 622.531 4.5C626.969 6.28125 630.938 8.875 634.438 12.2812C637.938 15.75 640.594 19.6719 642.406 24.0469C644.25 28.3906 645.172 32.9844 645.172 37.8281ZM713.938 38.1094C713.812 37.5781 713.609 36.1094 713.328 33.7031C713.078 31.7031 712.859 30.0469 712.672 28.7344C712.391 30.2969 711.984 31.8594 711.453 33.4219C710.953 34.9844 710.312 36.5781 709.531 38.2031L691.578 74.7656L673.625 37.4531C672.875 35.9219 672.219 34.4375 671.656 33C671.125 31.5625 670.656 30.1406 670.25 28.7344C670.219 30.1719 670.094 31.6875 669.875 33.2812C669.688 34.8438 669.391 36.4844 668.984 38.2031L661.625 72H651.359L667.578 0.46875L687.828 43.7812C688.141 44.4688 688.609 45.6094 689.234 47.2031C689.891 48.7969 690.672 50.7656 691.578 53.1094C692.234 51.1406 693.266 48.6406 694.672 45.6094C695.047 44.7969 695.328 44.1719 695.516 43.7344L715.297 0.46875L731.891 72H721.531L713.938 38.1094ZM740.844 72V3.375H779.141V12.8438H752V30.0469H779.141V39.8438H752V62.0156H779.141V72H740.844ZM788 58.2656L796.906 54.1406C797.75 57.2031 799.297 59.5469 801.547 61.1719C803.797 62.7656 806.672 63.5625 810.172 63.5625C813.484 63.5625 816.109 62.6406 818.047 60.7969C820.016 58.9531 821 56.4844 821 53.3906C821 49.3594 817.656 45.7656 810.969 42.6094C810.031 42.1406 809.312 41.7969 808.812 41.5781C801.25 37.8906 796.203 34.5625 793.672 31.5938C791.172 28.5938 789.922 24.9375 789.922 20.625C789.922 15.0312 791.812 10.5 795.594 7.03125C799.406 3.5625 804.391 1.82812 810.547 1.82812C815.609 1.82812 819.844 2.8125 823.25 4.78125C826.656 6.71875 829.016 9.51562 830.328 13.1719L821.609 17.6719C820.234 15.5156 818.719 13.9375 817.062 12.9375C815.438 11.9375 813.562 11.4375 811.438 11.4375C808.438 11.4375 806.047 12.2188 804.266 13.7812C802.516 15.3438 801.641 17.4375 801.641 20.0625C801.641 24.1875 805.516 28.0312 813.266 31.5938C813.859 31.875 814.328 32.0938 814.672 32.25C821.453 35.375 826.109 38.4375 828.641 41.4375C831.172 44.4062 832.438 48.125 832.438 52.5938C832.438 59.0938 830.391 64.2656 826.297 68.1094C822.203 71.9219 816.672 73.8281 809.703 73.8281C803.859 73.8281 799.062 72.4844 795.312 69.7969C791.594 67.1094 789.156 63.2656 788 58.2656Z" fill="white"/>
</svg>
