<svg width="911" height="75" viewBox="0 0 911 75" fill="none" xmlns="http://www.w3.org/2000/svg">
<path d="M0.875 72V3.375H39.1719V12.8438H12.0312V30.0469H39.1719V39.8438H12.0312V62.0156H39.1719V72H0.875ZM66.4531 45.0469H85.5781L78.5469 29.3906C78.1406 28.3906 77.7188 27.25 77.2812 25.9688C76.8438 24.6562 76.4062 23.2031 75.9688 21.6094C75.5938 23.1094 75.1875 24.5156 74.75 25.8281C74.3438 27.1094 73.9219 28.2969 73.4844 29.3906L66.4531 45.0469ZM97.2969 72L89.5156 54.3281H62.3281L54.3594 72H42.6406L75.875 0.65625L109.062 72H97.2969ZM111.594 58.2656L120.5 54.1406C121.344 57.2031 122.891 59.5469 125.141 61.1719C127.391 62.7656 130.266 63.5625 133.766 63.5625C137.078 63.5625 139.703 62.6406 141.641 60.7969C143.609 58.9531 144.594 56.4844 144.594 53.3906C144.594 49.3594 141.25 45.7656 134.562 42.6094C133.625 42.1406 132.906 41.7969 132.406 41.5781C124.844 37.8906 119.797 34.5625 117.266 31.5938C114.766 28.5938 113.516 24.9375 113.516 20.625C113.516 15.0312 115.406 10.5 119.188 7.03125C123 3.5625 127.984 1.82812 134.141 1.82812C139.203 1.82812 143.438 2.8125 146.844 4.78125C150.25 6.71875 152.609 9.51562 153.922 13.1719L145.203 17.6719C143.828 15.5156 142.312 13.9375 140.656 12.9375C139.031 11.9375 137.156 11.4375 135.031 11.4375C132.031 11.4375 129.641 12.2188 127.859 13.7812C126.109 15.3438 125.234 17.4375 125.234 20.0625C125.234 24.1875 129.109 28.0312 136.859 31.5938C137.453 31.875 137.922 32.0938 138.266 32.25C145.047 35.375 149.703 38.4375 152.234 41.4375C154.766 44.4062 156.031 48.125 156.031 52.5938C156.031 59.0938 153.984 64.2656 149.891 68.1094C145.797 71.9219 140.266 73.8281 133.297 73.8281C127.453 73.8281 122.656 72.4844 118.906 69.7969C115.188 67.1094 112.75 63.2656 111.594 58.2656ZM190.391 12.8438V72H179.234V12.8438H161V3.375H208.531V12.8438H190.391ZM242.094 58.2656L251 54.1406C251.844 57.2031 253.391 59.5469 255.641 61.1719C257.891 62.7656 260.766 63.5625 264.266 63.5625C267.578 63.5625 270.203 62.6406 272.141 60.7969C274.109 58.9531 275.094 56.4844 275.094 53.3906C275.094 49.3594 271.75 45.7656 265.062 42.6094C264.125 42.1406 263.406 41.7969 262.906 41.5781C255.344 37.8906 250.297 34.5625 247.766 31.5938C245.266 28.5938 244.016 24.9375 244.016 20.625C244.016 15.0312 245.906 10.5 249.688 7.03125C253.5 3.5625 258.484 1.82812 264.641 1.82812C269.703 1.82812 273.938 2.8125 277.344 4.78125C280.75 6.71875 283.109 9.51562 284.422 13.1719L275.703 17.6719C274.328 15.5156 272.812 13.9375 271.156 12.9375C269.531 11.9375 267.656 11.4375 265.531 11.4375C262.531 11.4375 260.141 12.2188 258.359 13.7812C256.609 15.3438 255.734 17.4375 255.734 20.0625C255.734 24.1875 259.609 28.0312 267.359 31.5938C267.953 31.875 268.422 32.0938 268.766 32.25C275.547 35.375 280.203 38.4375 282.734 41.4375C285.266 44.4062 286.531 48.125 286.531 52.5938C286.531 59.0938 284.484 64.2656 280.391 68.1094C276.297 71.9219 270.766 73.8281 263.797 73.8281C257.953 73.8281 253.156 72.4844 249.406 69.7969C245.688 67.1094 243.25 63.2656 242.094 58.2656ZM320.891 12.8438V72H309.734V12.8438H291.5V3.375H339.031V12.8438H320.891ZM358.719 32.625H360.734C366.641 32.625 370.562 31.9375 372.5 30.5625C374.438 29.1875 375.406 26.75 375.406 23.25C375.406 19.4688 374.359 16.8125 372.266 15.2812C370.203 13.7188 366.359 12.9375 360.734 12.9375H358.719V32.625ZM358.016 41.2969V72H347.562V3.375H363.125C367.688 3.375 371.219 3.67187 373.719 4.26562C376.25 4.85938 378.406 5.84375 380.188 7.21875C382.312 8.875 383.953 11.0156 385.109 13.6406C386.266 16.2656 386.844 19.1406 386.844 22.2656C386.844 27.7656 385.516 32.0781 382.859 35.2031C380.203 38.2969 376.281 40.1562 371.094 40.7812L394.719 72H382.109L359.281 41.2969H358.016ZM401.375 72V3.375H439.672V12.8438H412.531V30.0469H439.672V39.8438H412.531V62.0156H439.672V72H401.375ZM452.469 72V3.375H490.766V12.8438H463.625V30.0469H490.766V39.8438H463.625V62.0156H490.766V72H452.469ZM525.734 12.8438V72H514.578V12.8438H496.344V3.375H543.875V12.8438H525.734ZM581.375 72V3.375H592.531V28.6875H626.281V3.375H637.438V72H626.281V38.6719H592.531V72H581.375ZM711.922 37.8281C711.922 34.3594 711.281 31.0625 710 27.9375C708.75 24.8125 706.938 22.0312 704.562 19.5938C702.25 17.1875 699.562 15.3438 696.5 14.0625C693.469 12.75 690.266 12.0938 686.891 12.0938C683.516 12.0938 680.297 12.7344 677.234 14.0156C674.203 15.2969 671.5 17.1562 669.125 19.5938C666.75 22 664.938 24.7656 663.688 27.8906C662.438 31.0156 661.812 34.3281 661.812 37.8281C661.812 41.2969 662.438 44.5781 663.688 47.6719C664.938 50.7656 666.75 53.5312 669.125 55.9688C671.5 58.4062 674.203 60.2656 677.234 61.5469C680.266 62.8281 683.484 63.4688 686.891 63.4688C690.234 63.4688 693.406 62.8281 696.406 61.5469C699.438 60.2656 702.156 58.4062 704.562 55.9688C706.938 53.5312 708.75 50.7656 710 47.6719C711.281 44.5469 711.922 41.2656 711.922 37.8281ZM723.547 37.8281C723.547 42.7031 722.625 47.3125 720.781 51.6562C718.969 56 716.312 59.875 712.812 63.2812C709.281 66.6875 705.297 69.2969 700.859 71.1094C696.422 72.9219 691.766 73.8281 686.891 73.8281C681.953 73.8281 677.234 72.9219 672.734 71.1094C668.266 69.2656 664.312 66.6562 660.875 63.2812C657.375 59.875 654.719 56.0156 652.906 51.7031C651.094 47.3906 650.188 42.7656 650.188 37.8281C650.188 32.9219 651.094 28.2969 652.906 23.9531C654.719 19.6094 657.375 15.7188 660.875 12.2812C664.375 8.875 668.344 6.28125 672.781 4.5C677.219 2.71875 681.922 1.82812 686.891 1.82812C691.828 1.82812 696.5 2.71875 700.906 4.5C705.344 6.28125 709.312 8.875 712.812 12.2812C716.312 15.75 718.969 19.6719 720.781 24.0469C722.625 28.3906 723.547 32.9844 723.547 37.8281ZM792.312 38.1094C792.188 37.5781 791.984 36.1094 791.703 33.7031C791.453 31.7031 791.234 30.0469 791.047 28.7344C790.766 30.2969 790.359 31.8594 789.828 33.4219C789.328 34.9844 788.688 36.5781 787.906 38.2031L769.953 74.7656L752 37.4531C751.25 35.9219 750.594 34.4375 750.031 33C749.5 31.5625 749.031 30.1406 748.625 28.7344C748.594 30.1719 748.469 31.6875 748.25 33.2812C748.062 34.8438 747.766 36.4844 747.359 38.2031L740 72H729.734L745.953 0.46875L766.203 43.7812C766.516 44.4688 766.984 45.6094 767.609 47.2031C768.266 48.7969 769.047 50.7656 769.953 53.1094C770.609 51.1406 771.641 48.6406 773.047 45.6094C773.422 44.7969 773.703 44.1719 773.891 43.7344L793.672 0.46875L810.266 72H799.906L792.312 38.1094ZM819.219 72V3.375H857.516V12.8438H830.375V30.0469H857.516V39.8438H830.375V62.0156H857.516V72H819.219ZM866.375 58.2656L875.281 54.1406C876.125 57.2031 877.672 59.5469 879.922 61.1719C882.172 62.7656 885.047 63.5625 888.547 63.5625C891.859 63.5625 894.484 62.6406 896.422 60.7969C898.391 58.9531 899.375 56.4844 899.375 53.3906C899.375 49.3594 896.031 45.7656 889.344 42.6094C888.406 42.1406 887.688 41.7969 887.188 41.5781C879.625 37.8906 874.578 34.5625 872.047 31.5938C869.547 28.5938 868.297 24.9375 868.297 20.625C868.297 15.0312 870.188 10.5 873.969 7.03125C877.781 3.5625 882.766 1.82812 888.922 1.82812C893.984 1.82812 898.219 2.8125 901.625 4.78125C905.031 6.71875 907.391 9.51562 908.703 13.1719L899.984 17.6719C898.609 15.5156 897.094 13.9375 895.438 12.9375C893.812 11.9375 891.938 11.4375 889.812 11.4375C886.812 11.4375 884.422 12.2188 882.641 13.7812C880.891 15.3438 880.016 17.4375 880.016 20.0625C880.016 24.1875 883.891 28.0312 891.641 31.5938C892.234 31.875 892.703 32.0938 893.047 32.25C899.828 35.375 904.484 38.4375 907.016 41.4375C909.547 44.4062 910.812 48.125 910.812 52.5938C910.812 59.0938 908.766 64.2656 904.672 68.1094C900.578 71.9219 895.047 73.8281 888.078 73.8281C882.234 73.8281 877.438 72.4844 873.688 69.7969C869.969 67.1094 867.531 63.2656 866.375 58.2656Z" fill="white"/>
</svg>
