<svg width="816" height="75" viewBox="0 0 816 75" fill="none" xmlns="http://www.w3.org/2000/svg">
<path d="M0.0625 72V3.375H11.2188V72H0.0625ZM41.65 72V0.65625L85.2438 42.6094C86.4313 43.7969 87.6344 45.0625 88.8531 46.4062C90.0719 47.75 91.3531 49.2656 92.6969 50.9531V3.375H103.009V74.6719L58.525 31.9688C57.3375 30.8125 56.1813 29.5938 55.0563 28.3125C53.9625 27.0312 52.9156 25.6875 51.9156 24.2812V72H41.65ZM155.378 12.8438V72H144.222V12.8438H125.988V3.375H173.519V12.8438H155.378ZM207.606 32.625H209.622C215.528 32.625 219.45 31.9375 221.387 30.5625C223.325 29.1875 224.294 26.75 224.294 23.25C224.294 19.4688 223.247 16.8125 221.153 15.2812C219.091 13.7188 215.247 12.9375 209.622 12.9375H207.606V32.625ZM206.903 41.2969V72H196.45V3.375H212.012C216.575 3.375 220.106 3.67187 222.606 4.26562C225.137 4.85938 227.294 5.84375 229.075 7.21875C231.2 8.875 232.841 11.0156 233.997 13.6406C235.153 16.2656 235.731 19.1406 235.731 22.2656C235.731 27.7656 234.403 32.0781 231.747 35.2031C229.091 38.2969 225.169 40.1562 219.981 40.7812L243.606 72H230.997L208.169 41.2969H206.903ZM323.397 37.8281C323.397 34.3594 322.756 31.0625 321.475 27.9375C320.225 24.8125 318.413 22.0312 316.038 19.5938C313.725 17.1875 311.038 15.3438 307.975 14.0625C304.944 12.75 301.741 12.0938 298.366 12.0938C294.991 12.0938 291.772 12.7344 288.709 14.0156C285.678 15.2969 282.975 17.1562 280.6 19.5938C278.225 22 276.413 24.7656 275.163 27.8906C273.913 31.0156 273.288 34.3281 273.288 37.8281C273.288 41.2969 273.913 44.5781 275.163 47.6719C276.413 50.7656 278.225 53.5312 280.6 55.9688C282.975 58.4062 285.678 60.2656 288.709 61.5469C291.741 62.8281 294.959 63.4688 298.366 63.4688C301.709 63.4688 304.881 62.8281 307.881 61.5469C310.913 60.2656 313.631 58.4062 316.038 55.9688C318.413 53.5312 320.225 50.7656 321.475 47.6719C322.756 44.5469 323.397 41.2656 323.397 37.8281ZM335.022 37.8281C335.022 42.7031 334.1 47.3125 332.256 51.6562C330.444 56 327.788 59.875 324.288 63.2812C320.756 66.6875 316.772 69.2969 312.334 71.1094C307.897 72.9219 303.241 73.8281 298.366 73.8281C293.428 73.8281 288.709 72.9219 284.209 71.1094C279.741 69.2656 275.788 66.6562 272.35 63.2812C268.85 59.875 266.194 56.0156 264.381 51.7031C262.569 47.3906 261.663 42.7656 261.663 37.8281C261.663 32.9219 262.569 28.2969 264.381 23.9531C266.194 19.6094 268.85 15.7188 272.35 12.2812C275.85 8.875 279.819 6.28125 284.256 4.5C288.694 2.71875 293.397 1.82812 298.366 1.82812C303.303 1.82812 307.975 2.71875 312.381 4.5C316.819 6.28125 320.788 8.875 324.288 12.2812C327.788 15.75 330.444 19.6719 332.256 24.0469C334.1 28.3906 335.022 32.9844 335.022 37.8281ZM373.375 61.9219H382.75C387.906 61.9219 391.766 61.5781 394.328 60.8906C396.922 60.2031 399.172 59.0469 401.078 57.4219C403.672 55.2031 405.609 52.4531 406.891 49.1719C408.203 45.8594 408.859 42.0156 408.859 37.6406C408.859 33.2656 408.203 29.4375 406.891 26.1562C405.609 22.8438 403.672 20.0781 401.078 17.8594C399.141 16.2344 396.812 15.0781 394.094 14.3906C391.406 13.7031 387.188 13.3594 381.438 13.3594H377.406H373.375V61.9219ZM362.219 72V3.375H377.266C387.047 3.375 393.922 3.875 397.891 4.875C401.891 5.84375 405.391 7.48438 408.391 9.79688C412.359 12.8281 415.359 16.7188 417.391 21.4688C419.453 26.2188 420.484 31.6406 420.484 37.7344C420.484 43.8281 419.453 49.2344 417.391 53.9531C415.359 58.6406 412.359 62.5156 408.391 65.5781C405.391 67.8906 401.969 69.5469 398.125 70.5469C394.312 71.5156 388.359 72 380.266 72H377.266H362.219ZM447.4 3.375H458.416V45.0469C458.416 51.2344 459.837 55.8906 462.681 59.0156C465.556 62.1094 469.837 63.6562 475.525 63.6562C481.181 63.6562 485.431 62.1094 488.275 59.0156C491.15 55.8906 492.587 51.2344 492.587 45.0469V3.375H503.744V46.0781C503.744 55.3594 501.4 62.3125 496.712 66.9375C492.025 71.5312 484.962 73.8281 475.525 73.8281C466.087 73.8281 459.041 71.5312 454.384 66.9375C449.728 62.3438 447.4 55.3906 447.4 46.0781V3.375ZM588.597 20.0625C585.441 17.375 582.097 15.3594 578.566 14.0156C575.066 12.6719 571.378 12 567.503 12C560.003 12 553.894 14.4062 549.175 19.2188C544.487 24.0312 542.144 30.2656 542.144 37.9219C542.144 45.3281 544.425 51.4375 548.987 56.25C553.581 61.0625 559.362 63.4688 566.331 63.4688C570.394 63.4688 574.253 62.75 577.909 61.3125C581.597 59.875 585.128 57.7031 588.503 54.7969V67.4062C585.503 69.5625 582.237 71.1719 578.706 72.2344C575.175 73.2969 571.347 73.8281 567.222 73.8281C561.972 73.8281 557.112 72.9688 552.644 71.25C548.206 69.5312 544.3 67 540.925 63.6562C537.581 60.375 535.003 56.5156 533.191 52.0781C531.409 47.6094 530.519 42.8594 530.519 37.8281C530.519 32.7969 531.409 28.0781 533.191 23.6719C535.003 19.2344 537.612 15.3438 541.019 12C544.425 8.625 548.331 6.07813 552.737 4.35938C557.144 2.60938 561.909 1.73438 567.034 1.73438C571.066 1.73438 574.909 2.32813 578.566 3.51562C582.222 4.67188 585.769 6.4375 589.206 8.8125L588.597 20.0625ZM617.013 72V3.375H628.169V72H617.013ZM658.6 72V0.65625L702.194 42.6094C703.381 43.7969 704.584 45.0625 705.803 46.4062C707.022 47.75 708.303 49.2656 709.647 50.9531V3.375H719.959V74.6719L675.475 31.9688C674.287 30.8125 673.131 29.5938 672.006 28.3125C670.912 27.0312 669.866 25.6875 668.866 24.2812V72H658.6ZM788.172 36.8438H815.359C815.359 37.3125 815.375 37.9688 815.406 38.8125C815.5 41.0312 815.547 42.5312 815.547 43.3125C815.547 52.9688 812.781 60.4688 807.25 65.8125C801.719 71.1562 793.922 73.8281 783.859 73.8281C778.234 73.8281 773.219 73 768.812 71.3438C764.406 69.6875 760.547 67.1875 757.234 63.8438C753.984 60.5312 751.484 56.6406 749.734 52.1719C748.016 47.7031 747.156 42.9219 747.156 37.8281C747.156 32.6406 748.031 27.8594 749.781 23.4844C751.562 19.1094 754.188 15.25 757.656 11.9062C761 8.625 764.922 6.125 769.422 4.40625C773.922 2.6875 778.734 1.82812 783.859 1.82812C789.266 1.82812 794.094 2.8125 798.344 4.78125C802.625 6.75 806.438 9.76562 809.781 13.8281L801.625 19.9688C799.312 17.2812 796.703 15.2812 793.797 13.9688C790.891 12.6562 787.641 12 784.047 12C776.609 12 770.531 14.3906 765.812 19.1719C761.125 23.9219 758.781 30.1094 758.781 37.7344C758.781 45.4844 761.125 51.7812 765.812 56.625C770.531 61.4375 776.641 63.8438 784.141 63.8438C790.516 63.8438 795.531 62.3594 799.188 59.3906C802.844 56.4219 804.672 52.375 804.672 47.25V46.2656H788.172V36.8438Z" fill="white"/>
</svg>
