<svg width="627" height="75" viewBox="0 0 627 75" fill="none" xmlns="http://www.w3.org/2000/svg">
<path d="M0.71875 3.375H11.7344L24.7188 38.0156C25.5625 40.2969 26.2656 42.2969 26.8281 44.0156C27.4219 45.7344 27.9375 47.3438 28.375 48.8438C29.4688 45.2188 30.6094 41.6719 31.7969 38.2031C31.9531 37.7656 32.0625 37.4688 32.125 37.3125L45.9062 0.65625L60.4375 38.0156C61.125 39.8281 61.7656 41.6406 62.3594 43.4531C62.9844 45.2656 63.5625 47.0938 64.0938 48.9375C64.4062 47.5312 64.8281 45.9844 65.3594 44.2969C65.8906 42.6094 66.5781 40.6094 67.4219 38.2969L80.3125 3.375H91.4219L64.8438 74.6719L49.1875 35.5312C48.5 33.7812 47.875 32.1094 47.3125 30.5156C46.75 28.8906 46.25 27.3594 45.8125 25.9219C45.2812 27.7656 44.75 29.5 44.2188 31.125C43.6875 32.7188 43.1406 34.25 42.5781 35.7188L27.2031 74.6719L0.71875 3.375ZM99.0625 72V3.375H137.359V12.8438H110.219V30.0469H137.359V39.8438H110.219V62.0156H137.359V72H99.0625ZM150.156 72V3.375H161.312V62.0156H186.25V72H150.156ZM250.422 20.0625C247.266 17.375 243.922 15.3594 240.391 14.0156C236.891 12.6719 233.203 12 229.328 12C221.828 12 215.719 14.4062 211 19.2188C206.312 24.0312 203.969 30.2656 203.969 37.9219C203.969 45.3281 206.25 51.4375 210.812 56.25C215.406 61.0625 221.188 63.4688 228.156 63.4688C232.219 63.4688 236.078 62.75 239.734 61.3125C243.422 59.875 246.953 57.7031 250.328 54.7969V67.4062C247.328 69.5625 244.062 71.1719 240.531 72.2344C237 73.2969 233.172 73.8281 229.047 73.8281C223.797 73.8281 218.938 72.9688 214.469 71.25C210.031 69.5312 206.125 67 202.75 63.6562C199.406 60.375 196.828 56.5156 195.016 52.0781C193.234 47.6094 192.344 42.8594 192.344 37.8281C192.344 32.7969 193.234 28.0781 195.016 23.6719C196.828 19.2344 199.438 15.3438 202.844 12C206.25 8.625 210.156 6.07813 214.562 4.35938C218.969 2.60938 223.734 1.73438 228.859 1.73438C232.891 1.73438 236.734 2.32813 240.391 3.51562C244.047 4.67188 247.594 6.4375 251.031 8.8125L250.422 20.0625ZM322.984 37.8281C322.984 34.3594 322.344 31.0625 321.062 27.9375C319.812 24.8125 318 22.0312 315.625 19.5938C313.312 17.1875 310.625 15.3438 307.562 14.0625C304.531 12.75 301.328 12.0938 297.953 12.0938C294.578 12.0938 291.359 12.7344 288.297 14.0156C285.266 15.2969 282.562 17.1562 280.188 19.5938C277.812 22 276 24.7656 274.75 27.8906C273.5 31.0156 272.875 34.3281 272.875 37.8281C272.875 41.2969 273.5 44.5781 274.75 47.6719C276 50.7656 277.812 53.5312 280.188 55.9688C282.562 58.4062 285.266 60.2656 288.297 61.5469C291.328 62.8281 294.547 63.4688 297.953 63.4688C301.297 63.4688 304.469 62.8281 307.469 61.5469C310.5 60.2656 313.219 58.4062 315.625 55.9688C318 53.5312 319.812 50.7656 321.062 47.6719C322.344 44.5469 322.984 41.2656 322.984 37.8281ZM334.609 37.8281C334.609 42.7031 333.688 47.3125 331.844 51.6562C330.031 56 327.375 59.875 323.875 63.2812C320.344 66.6875 316.359 69.2969 311.922 71.1094C307.484 72.9219 302.828 73.8281 297.953 73.8281C293.016 73.8281 288.297 72.9219 283.797 71.1094C279.328 69.2656 275.375 66.6562 271.938 63.2812C268.438 59.875 265.781 56.0156 263.969 51.7031C262.156 47.3906 261.25 42.7656 261.25 37.8281C261.25 32.9219 262.156 28.2969 263.969 23.9531C265.781 19.6094 268.438 15.7188 271.938 12.2812C275.438 8.875 279.406 6.28125 283.844 4.5C288.281 2.71875 292.984 1.82812 297.953 1.82812C302.891 1.82812 307.562 2.71875 311.969 4.5C316.406 6.28125 320.375 8.875 323.875 12.2812C327.375 15.75 330.031 19.6719 331.844 24.0469C333.688 28.3906 334.609 32.9844 334.609 37.8281ZM403.375 38.1094C403.25 37.5781 403.047 36.1094 402.766 33.7031C402.516 31.7031 402.297 30.0469 402.109 28.7344C401.828 30.2969 401.422 31.8594 400.891 33.4219C400.391 34.9844 399.75 36.5781 398.969 38.2031L381.016 74.7656L363.062 37.4531C362.312 35.9219 361.656 34.4375 361.094 33C360.562 31.5625 360.094 30.1406 359.688 28.7344C359.656 30.1719 359.531 31.6875 359.312 33.2812C359.125 34.8438 358.828 36.4844 358.422 38.2031L351.062 72H340.797L357.016 0.46875L377.266 43.7812C377.578 44.4688 378.047 45.6094 378.672 47.2031C379.328 48.7969 380.109 50.7656 381.016 53.1094C381.672 51.1406 382.703 48.6406 384.109 45.6094C384.484 44.7969 384.766 44.1719 384.953 43.7344L404.734 0.46875L421.328 72H410.969L403.375 38.1094ZM430.281 72V3.375H468.578V12.8438H441.438V30.0469H468.578V39.8438H441.438V62.0156H468.578V72H430.281ZM532.516 12.8438V72H521.359V12.8438H503.125V3.375H550.656V12.8438H532.516ZM614.453 37.8281C614.453 34.3594 613.812 31.0625 612.531 27.9375C611.281 24.8125 609.469 22.0312 607.094 19.5938C604.781 17.1875 602.094 15.3438 599.031 14.0625C596 12.75 592.797 12.0938 589.422 12.0938C586.047 12.0938 582.828 12.7344 579.766 14.0156C576.734 15.2969 574.031 17.1562 571.656 19.5938C569.281 22 567.469 24.7656 566.219 27.8906C564.969 31.0156 564.344 34.3281 564.344 37.8281C564.344 41.2969 564.969 44.5781 566.219 47.6719C567.469 50.7656 569.281 53.5312 571.656 55.9688C574.031 58.4062 576.734 60.2656 579.766 61.5469C582.797 62.8281 586.016 63.4688 589.422 63.4688C592.766 63.4688 595.938 62.8281 598.938 61.5469C601.969 60.2656 604.688 58.4062 607.094 55.9688C609.469 53.5312 611.281 50.7656 612.531 47.6719C613.812 44.5469 614.453 41.2656 614.453 37.8281ZM626.078 37.8281C626.078 42.7031 625.156 47.3125 623.312 51.6562C621.5 56 618.844 59.875 615.344 63.2812C611.812 66.6875 607.828 69.2969 603.391 71.1094C598.953 72.9219 594.297 73.8281 589.422 73.8281C584.484 73.8281 579.766 72.9219 575.266 71.1094C570.797 69.2656 566.844 66.6562 563.406 63.2812C559.906 59.875 557.25 56.0156 555.438 51.7031C553.625 47.3906 552.719 42.7656 552.719 37.8281C552.719 32.9219 553.625 28.2969 555.438 23.9531C557.25 19.6094 559.906 15.7188 563.406 12.2812C566.906 8.875 570.875 6.28125 575.312 4.5C579.75 2.71875 584.453 1.82812 589.422 1.82812C594.359 1.82812 599.031 2.71875 603.438 4.5C607.875 6.28125 611.844 8.875 615.344 12.2812C618.844 15.75 621.5 19.6719 623.312 24.0469C625.156 28.3906 626.078 32.9844 626.078 37.8281Z" fill="white"/>
</svg>
