<svg width="946" height="75" viewBox="0 0 946 75" fill="none" xmlns="http://www.w3.org/2000/svg">
<path d="M0.71875 3.375H11.7344L24.7188 38.0156C25.5625 40.2969 26.2656 42.2969 26.8281 44.0156C27.4219 45.7344 27.9375 47.3438 28.375 48.8438C29.4688 45.2188 30.6094 41.6719 31.7969 38.2031C31.9531 37.7656 32.0625 37.4688 32.125 37.3125L45.9062 0.65625L60.4375 38.0156C61.125 39.8281 61.7656 41.6406 62.3594 43.4531C62.9844 45.2656 63.5625 47.0938 64.0938 48.9375C64.4062 47.5312 64.8281 45.9844 65.3594 44.2969C65.8906 42.6094 66.5781 40.6094 67.4219 38.2969L80.3125 3.375H91.4219L64.8438 74.6719L49.1875 35.5312C48.5 33.7812 47.875 32.1094 47.3125 30.5156C46.75 28.8906 46.25 27.3594 45.8125 25.9219C45.2812 27.7656 44.75 29.5 44.2188 31.125C43.6875 32.7188 43.1406 34.25 42.5781 35.7188L27.2031 74.6719L0.71875 3.375ZM99.0625 72V3.375H137.359V12.8438H110.219V30.0469H137.359V39.8438H110.219V62.0156H137.359V72H99.0625ZM146.219 58.2656L155.125 54.1406C155.969 57.2031 157.516 59.5469 159.766 61.1719C162.016 62.7656 164.891 63.5625 168.391 63.5625C171.703 63.5625 174.328 62.6406 176.266 60.7969C178.234 58.9531 179.219 56.4844 179.219 53.3906C179.219 49.3594 175.875 45.7656 169.188 42.6094C168.25 42.1406 167.531 41.7969 167.031 41.5781C159.469 37.8906 154.422 34.5625 151.891 31.5938C149.391 28.5938 148.141 24.9375 148.141 20.625C148.141 15.0312 150.031 10.5 153.812 7.03125C157.625 3.5625 162.609 1.82812 168.766 1.82812C173.828 1.82812 178.062 2.8125 181.469 4.78125C184.875 6.71875 187.234 9.51562 188.547 13.1719L179.828 17.6719C178.453 15.5156 176.938 13.9375 175.281 12.9375C173.656 11.9375 171.781 11.4375 169.656 11.4375C166.656 11.4375 164.266 12.2188 162.484 13.7812C160.734 15.3438 159.859 17.4375 159.859 20.0625C159.859 24.1875 163.734 28.0312 171.484 31.5938C172.078 31.875 172.547 32.0938 172.891 32.25C179.672 35.375 184.328 38.4375 186.859 41.4375C189.391 44.4062 190.656 48.125 190.656 52.5938C190.656 59.0938 188.609 64.2656 184.516 68.1094C180.422 71.9219 174.891 73.8281 167.922 73.8281C162.078 73.8281 157.281 72.4844 153.531 69.7969C149.812 67.1094 147.375 63.2656 146.219 58.2656ZM225.016 12.8438V72H213.859V12.8438H195.625V3.375H243.156V12.8438H225.016ZM276.719 58.2656L285.625 54.1406C286.469 57.2031 288.016 59.5469 290.266 61.1719C292.516 62.7656 295.391 63.5625 298.891 63.5625C302.203 63.5625 304.828 62.6406 306.766 60.7969C308.734 58.9531 309.719 56.4844 309.719 53.3906C309.719 49.3594 306.375 45.7656 299.688 42.6094C298.75 42.1406 298.031 41.7969 297.531 41.5781C289.969 37.8906 284.922 34.5625 282.391 31.5938C279.891 28.5938 278.641 24.9375 278.641 20.625C278.641 15.0312 280.531 10.5 284.312 7.03125C288.125 3.5625 293.109 1.82812 299.266 1.82812C304.328 1.82812 308.562 2.8125 311.969 4.78125C315.375 6.71875 317.734 9.51562 319.047 13.1719L310.328 17.6719C308.953 15.5156 307.438 13.9375 305.781 12.9375C304.156 11.9375 302.281 11.4375 300.156 11.4375C297.156 11.4375 294.766 12.2188 292.984 13.7812C291.234 15.3438 290.359 17.4375 290.359 20.0625C290.359 24.1875 294.234 28.0312 301.984 31.5938C302.578 31.875 303.047 32.0938 303.391 32.25C310.172 35.375 314.828 38.4375 317.359 41.4375C319.891 44.4062 321.156 48.125 321.156 52.5938C321.156 59.0938 319.109 64.2656 315.016 68.1094C310.922 71.9219 305.391 73.8281 298.422 73.8281C292.578 73.8281 287.781 72.4844 284.031 69.7969C280.312 67.1094 277.875 63.2656 276.719 58.2656ZM355.516 12.8438V72H344.359V12.8438H326.125V3.375H373.656V12.8438H355.516ZM393.344 32.625H395.359C401.266 32.625 405.188 31.9375 407.125 30.5625C409.062 29.1875 410.031 26.75 410.031 23.25C410.031 19.4688 408.984 16.8125 406.891 15.2812C404.828 13.7188 400.984 12.9375 395.359 12.9375H393.344V32.625ZM392.641 41.2969V72H382.188V3.375H397.75C402.312 3.375 405.844 3.67187 408.344 4.26562C410.875 4.85938 413.031 5.84375 414.812 7.21875C416.938 8.875 418.578 11.0156 419.734 13.6406C420.891 16.2656 421.469 19.1406 421.469 22.2656C421.469 27.7656 420.141 32.0781 417.484 35.2031C414.828 38.2969 410.906 40.1562 405.719 40.7812L429.344 72H416.734L393.906 41.2969H392.641ZM436 72V3.375H474.297V12.8438H447.156V30.0469H474.297V39.8438H447.156V62.0156H474.297V72H436ZM487.094 72V3.375H525.391V12.8438H498.25V30.0469H525.391V39.8438H498.25V62.0156H525.391V72H487.094ZM560.359 12.8438V72H549.203V12.8438H530.969V3.375H578.5V12.8438H560.359ZM616 72V3.375H627.156V28.6875H660.906V3.375H672.062V72H660.906V38.6719H627.156V72H616ZM746.547 37.8281C746.547 34.3594 745.906 31.0625 744.625 27.9375C743.375 24.8125 741.562 22.0312 739.188 19.5938C736.875 17.1875 734.188 15.3438 731.125 14.0625C728.094 12.75 724.891 12.0938 721.516 12.0938C718.141 12.0938 714.922 12.7344 711.859 14.0156C708.828 15.2969 706.125 17.1562 703.75 19.5938C701.375 22 699.562 24.7656 698.312 27.8906C697.062 31.0156 696.438 34.3281 696.438 37.8281C696.438 41.2969 697.062 44.5781 698.312 47.6719C699.562 50.7656 701.375 53.5312 703.75 55.9688C706.125 58.4062 708.828 60.2656 711.859 61.5469C714.891 62.8281 718.109 63.4688 721.516 63.4688C724.859 63.4688 728.031 62.8281 731.031 61.5469C734.062 60.2656 736.781 58.4062 739.188 55.9688C741.562 53.5312 743.375 50.7656 744.625 47.6719C745.906 44.5469 746.547 41.2656 746.547 37.8281ZM758.172 37.8281C758.172 42.7031 757.25 47.3125 755.406 51.6562C753.594 56 750.938 59.875 747.438 63.2812C743.906 66.6875 739.922 69.2969 735.484 71.1094C731.047 72.9219 726.391 73.8281 721.516 73.8281C716.578 73.8281 711.859 72.9219 707.359 71.1094C702.891 69.2656 698.938 66.6562 695.5 63.2812C692 59.875 689.344 56.0156 687.531 51.7031C685.719 47.3906 684.812 42.7656 684.812 37.8281C684.812 32.9219 685.719 28.2969 687.531 23.9531C689.344 19.6094 692 15.7188 695.5 12.2812C699 8.875 702.969 6.28125 707.406 4.5C711.844 2.71875 716.547 1.82812 721.516 1.82812C726.453 1.82812 731.125 2.71875 735.531 4.5C739.969 6.28125 743.938 8.875 747.438 12.2812C750.938 15.75 753.594 19.6719 755.406 24.0469C757.25 28.3906 758.172 32.9844 758.172 37.8281ZM826.938 38.1094C826.812 37.5781 826.609 36.1094 826.328 33.7031C826.078 31.7031 825.859 30.0469 825.672 28.7344C825.391 30.2969 824.984 31.8594 824.453 33.4219C823.953 34.9844 823.312 36.5781 822.531 38.2031L804.578 74.7656L786.625 37.4531C785.875 35.9219 785.219 34.4375 784.656 33C784.125 31.5625 783.656 30.1406 783.25 28.7344C783.219 30.1719 783.094 31.6875 782.875 33.2812C782.688 34.8438 782.391 36.4844 781.984 38.2031L774.625 72H764.359L780.578 0.46875L800.828 43.7812C801.141 44.4688 801.609 45.6094 802.234 47.2031C802.891 48.7969 803.672 50.7656 804.578 53.1094C805.234 51.1406 806.266 48.6406 807.672 45.6094C808.047 44.7969 808.328 44.1719 808.516 43.7344L828.297 0.46875L844.891 72H834.531L826.938 38.1094ZM853.844 72V3.375H892.141V12.8438H865V30.0469H892.141V39.8438H865V62.0156H892.141V72H853.844ZM901 58.2656L909.906 54.1406C910.75 57.2031 912.297 59.5469 914.547 61.1719C916.797 62.7656 919.672 63.5625 923.172 63.5625C926.484 63.5625 929.109 62.6406 931.047 60.7969C933.016 58.9531 934 56.4844 934 53.3906C934 49.3594 930.656 45.7656 923.969 42.6094C923.031 42.1406 922.312 41.7969 921.812 41.5781C914.25 37.8906 909.203 34.5625 906.672 31.5938C904.172 28.5938 902.922 24.9375 902.922 20.625C902.922 15.0312 904.812 10.5 908.594 7.03125C912.406 3.5625 917.391 1.82812 923.547 1.82812C928.609 1.82812 932.844 2.8125 936.25 4.78125C939.656 6.71875 942.016 9.51562 943.328 13.1719L934.609 17.6719C933.234 15.5156 931.719 13.9375 930.062 12.9375C928.438 11.9375 926.562 11.4375 924.438 11.4375C921.438 11.4375 919.047 12.2188 917.266 13.7812C915.516 15.3438 914.641 17.4375 914.641 20.0625C914.641 24.1875 918.516 28.0312 926.266 31.5938C926.859 31.875 927.328 32.0938 927.672 32.25C934.453 35.375 939.109 38.4375 941.641 41.4375C944.172 44.4062 945.438 48.125 945.438 52.5938C945.438 59.0938 943.391 64.2656 939.297 68.1094C935.203 71.9219 929.672 73.8281 922.703 73.8281C916.859 73.8281 912.062 72.4844 908.312 69.7969C904.594 67.1094 902.156 63.2656 901 58.2656Z" fill="white"/>
</svg>
