<svg width="868" height="75" viewBox="0 0 868 75" fill="none" xmlns="http://www.w3.org/2000/svg">
<path d="M0.71875 3.375H11.7344L24.7188 38.0156C25.5625 40.2969 26.2656 42.2969 26.8281 44.0156C27.4219 45.7344 27.9375 47.3438 28.375 48.8438C29.4688 45.2188 30.6094 41.6719 31.7969 38.2031C31.9531 37.7656 32.0625 37.4688 32.125 37.3125L45.9062 0.65625L60.4375 38.0156C61.125 39.8281 61.7656 41.6406 62.3594 43.4531C62.9844 45.2656 63.5625 47.0938 64.0938 48.9375C64.4062 47.5312 64.8281 45.9844 65.3594 44.2969C65.8906 42.6094 66.5781 40.6094 67.4219 38.2969L80.3125 3.375H91.4219L64.8438 74.6719L49.1875 35.5312C48.5 33.7812 47.875 32.1094 47.3125 30.5156C46.75 28.8906 46.25 27.3594 45.8125 25.9219C45.2812 27.7656 44.75 29.5 44.2188 31.125C43.6875 32.7188 43.1406 34.25 42.5781 35.7188L27.2031 74.6719L0.71875 3.375ZM99.0625 72V3.375H137.359V12.8438H110.219V30.0469H137.359V39.8438H110.219V62.0156H137.359V72H99.0625ZM146.219 58.2656L155.125 54.1406C155.969 57.2031 157.516 59.5469 159.766 61.1719C162.016 62.7656 164.891 63.5625 168.391 63.5625C171.703 63.5625 174.328 62.6406 176.266 60.7969C178.234 58.9531 179.219 56.4844 179.219 53.3906C179.219 49.3594 175.875 45.7656 169.188 42.6094C168.25 42.1406 167.531 41.7969 167.031 41.5781C159.469 37.8906 154.422 34.5625 151.891 31.5938C149.391 28.5938 148.141 24.9375 148.141 20.625C148.141 15.0312 150.031 10.5 153.812 7.03125C157.625 3.5625 162.609 1.82812 168.766 1.82812C173.828 1.82812 178.062 2.8125 181.469 4.78125C184.875 6.71875 187.234 9.51562 188.547 13.1719L179.828 17.6719C178.453 15.5156 176.938 13.9375 175.281 12.9375C173.656 11.9375 171.781 11.4375 169.656 11.4375C166.656 11.4375 164.266 12.2188 162.484 13.7812C160.734 15.3438 159.859 17.4375 159.859 20.0625C159.859 24.1875 163.734 28.0312 171.484 31.5938C172.078 31.875 172.547 32.0938 172.891 32.25C179.672 35.375 184.328 38.4375 186.859 41.4375C189.391 44.4062 190.656 48.125 190.656 52.5938C190.656 59.0938 188.609 64.2656 184.516 68.1094C180.422 71.9219 174.891 73.8281 167.922 73.8281C162.078 73.8281 157.281 72.4844 153.531 69.7969C149.812 67.1094 147.375 63.2656 146.219 58.2656ZM225.016 12.8438V72H213.859V12.8438H195.625V3.375H243.156V12.8438H225.016ZM302.453 74.6719L271.844 3.375H283.422L298.797 39.9375C299.703 42.0625 300.453 44.0312 301.047 45.8438C301.641 47.625 302.109 49.3281 302.453 50.9531C302.859 49.2344 303.375 47.4531 304 45.6094C304.625 43.7656 305.359 41.875 306.203 39.9375L321.531 3.375H333.062L302.453 74.6719ZM340.188 72V3.375H351.344V72H340.188ZM367.375 72V3.375H405.672V12.8438H378.531V30.0469H405.672V39.8438H378.531V62.0156H405.672V72H367.375ZM410.312 3.375H421.328L434.312 38.0156C435.156 40.2969 435.859 42.2969 436.422 44.0156C437.016 45.7344 437.531 47.3438 437.969 48.8438C439.062 45.2188 440.203 41.6719 441.391 38.2031C441.547 37.7656 441.656 37.4688 441.719 37.3125L455.5 0.65625L470.031 38.0156C470.719 39.8281 471.359 41.6406 471.953 43.4531C472.578 45.2656 473.156 47.0938 473.688 48.9375C474 47.5312 474.422 45.9844 474.953 44.2969C475.484 42.6094 476.172 40.6094 477.016 38.2969L489.906 3.375H501.016L474.438 74.6719L458.781 35.5312C458.094 33.7812 457.469 32.1094 456.906 30.5156C456.344 28.8906 455.844 27.3594 455.406 25.9219C454.875 27.7656 454.344 29.5 453.812 31.125C453.281 32.7188 452.734 34.25 452.172 35.7188L436.797 74.6719L410.312 3.375ZM537.625 72V3.375H548.781V28.6875H582.531V3.375H593.688V72H582.531V38.6719H548.781V72H537.625ZM668.172 37.8281C668.172 34.3594 667.531 31.0625 666.25 27.9375C665 24.8125 663.188 22.0312 660.812 19.5938C658.5 17.1875 655.812 15.3438 652.75 14.0625C649.719 12.75 646.516 12.0938 643.141 12.0938C639.766 12.0938 636.547 12.7344 633.484 14.0156C630.453 15.2969 627.75 17.1562 625.375 19.5938C623 22 621.188 24.7656 619.938 27.8906C618.688 31.0156 618.062 34.3281 618.062 37.8281C618.062 41.2969 618.688 44.5781 619.938 47.6719C621.188 50.7656 623 53.5312 625.375 55.9688C627.75 58.4062 630.453 60.2656 633.484 61.5469C636.516 62.8281 639.734 63.4688 643.141 63.4688C646.484 63.4688 649.656 62.8281 652.656 61.5469C655.688 60.2656 658.406 58.4062 660.812 55.9688C663.188 53.5312 665 50.7656 666.25 47.6719C667.531 44.5469 668.172 41.2656 668.172 37.8281ZM679.797 37.8281C679.797 42.7031 678.875 47.3125 677.031 51.6562C675.219 56 672.562 59.875 669.062 63.2812C665.531 66.6875 661.547 69.2969 657.109 71.1094C652.672 72.9219 648.016 73.8281 643.141 73.8281C638.203 73.8281 633.484 72.9219 628.984 71.1094C624.516 69.2656 620.562 66.6562 617.125 63.2812C613.625 59.875 610.969 56.0156 609.156 51.7031C607.344 47.3906 606.438 42.7656 606.438 37.8281C606.438 32.9219 607.344 28.2969 609.156 23.9531C610.969 19.6094 613.625 15.7188 617.125 12.2812C620.625 8.875 624.594 6.28125 629.031 4.5C633.469 2.71875 638.172 1.82812 643.141 1.82812C648.078 1.82812 652.75 2.71875 657.156 4.5C661.594 6.28125 665.562 8.875 669.062 12.2812C672.562 15.75 675.219 19.6719 677.031 24.0469C678.875 28.3906 679.797 32.9844 679.797 37.8281ZM748.562 38.1094C748.438 37.5781 748.234 36.1094 747.953 33.7031C747.703 31.7031 747.484 30.0469 747.297 28.7344C747.016 30.2969 746.609 31.8594 746.078 33.4219C745.578 34.9844 744.938 36.5781 744.156 38.2031L726.203 74.7656L708.25 37.4531C707.5 35.9219 706.844 34.4375 706.281 33C705.75 31.5625 705.281 30.1406 704.875 28.7344C704.844 30.1719 704.719 31.6875 704.5 33.2812C704.312 34.8438 704.016 36.4844 703.609 38.2031L696.25 72H685.984L702.203 0.46875L722.453 43.7812C722.766 44.4688 723.234 45.6094 723.859 47.2031C724.516 48.7969 725.297 50.7656 726.203 53.1094C726.859 51.1406 727.891 48.6406 729.297 45.6094C729.672 44.7969 729.953 44.1719 730.141 43.7344L749.922 0.46875L766.516 72H756.156L748.562 38.1094ZM775.469 72V3.375H813.766V12.8438H786.625V30.0469H813.766V39.8438H786.625V62.0156H813.766V72H775.469ZM822.625 58.2656L831.531 54.1406C832.375 57.2031 833.922 59.5469 836.172 61.1719C838.422 62.7656 841.297 63.5625 844.797 63.5625C848.109 63.5625 850.734 62.6406 852.672 60.7969C854.641 58.9531 855.625 56.4844 855.625 53.3906C855.625 49.3594 852.281 45.7656 845.594 42.6094C844.656 42.1406 843.938 41.7969 843.438 41.5781C835.875 37.8906 830.828 34.5625 828.297 31.5938C825.797 28.5938 824.547 24.9375 824.547 20.625C824.547 15.0312 826.438 10.5 830.219 7.03125C834.031 3.5625 839.016 1.82812 845.172 1.82812C850.234 1.82812 854.469 2.8125 857.875 4.78125C861.281 6.71875 863.641 9.51562 864.953 13.1719L856.234 17.6719C854.859 15.5156 853.344 13.9375 851.688 12.9375C850.062 11.9375 848.188 11.4375 846.062 11.4375C843.062 11.4375 840.672 12.2188 838.891 13.7812C837.141 15.3438 836.266 17.4375 836.266 20.0625C836.266 24.1875 840.141 28.0312 847.891 31.5938C848.484 31.875 848.953 32.0938 849.297 32.25C856.078 35.375 860.734 38.4375 863.266 41.4375C865.797 44.4062 867.062 48.125 867.062 52.5938C867.062 59.0938 865.016 64.2656 860.922 68.1094C856.828 71.9219 851.297 73.8281 844.328 73.8281C838.484 73.8281 833.688 72.4844 829.938 69.7969C826.219 67.1094 823.781 63.2656 822.625 58.2656Z" fill="white"/>
</svg>
