<?xml version="1.0" encoding="UTF-8"?>
<svg version="1.1" xmlns="http://www.w3.org/2000/svg" width="1152" height="1108">
<path d="M0 0 C12.90806317 8.77508703 26.31669857 16.51124511 39.890625 24.20703125 C44.49666052 26.82875705 49.10038226 29.45452982 53.703125 32.08203125 C54.5674263 32.57523361 54.5674263 32.57523361 55.44918823 33.07839966 C72.92923877 43.05677662 90.39867128 53.07589178 107.453125 63.76953125 C118.34167204 70.59493213 129.51546131 76.90572114 140.69029236 83.24468994 C146.4924345 86.54028625 152.25720652 89.89829464 158.015625 93.26953125 C166.29041135 98.11168115 174.58249293 102.92231086 182.890625 107.70703125 C192.22930241 113.0860928 201.54702869 118.49962602 210.8515625 123.9375 C218.18346264 128.21925271 225.53333307 132.46907816 232.890625 136.70703125 C246.24078165 144.39820594 259.54795628 152.16186085 272.84960938 159.93652344 C285.27145091 167.19556267 297.71220921 174.42007296 310.17919922 181.60131836 C318.41464653 186.34790839 326.62916241 191.12940731 334.83398438 195.92871094 C341.21006256 199.65474476 347.6059702 203.34451162 354.01269531 207.01757812 C371.15284813 216.85867194 371.15284813 216.85867194 379.140625 221.70703125 C379.75357422 222.06764648 380.36652344 222.42826172 380.99804688 222.79980469 C387.13701091 226.59397712 392.51065436 232.33156052 394.890625 239.20703125 C395.53684815 244.53637773 395.59315265 248.77595641 393.203125 253.64453125 C387.53337877 259.92722302 381.38897772 263.191655 372.91796875 263.67578125 C358.59645451 263.84429613 344.49058653 262.83101516 330.24917221 261.45635939 C324.19083566 260.87408567 318.13027825 260.31598821 312.06958008 259.75891113 C311.40380668 259.69766897 310.73803328 259.63642681 310.05208492 259.57332882 C291.18336355 257.84149427 272.29860665 256.30065289 253.4140625 254.75292969 C251.5159083 254.59722021 249.61775436 254.44150758 247.71960068 254.28579187 C236.72115741 253.38391468 225.72243754 252.48544302 214.72360992 251.58826666 C203.9851492 250.71222558 193.24692467 249.8333045 182.50870526 248.95431128 C163.22552805 247.37593743 143.9421683 245.79980558 124.65869141 244.22509766 C106.24679739 242.72156002 87.8350044 241.21679421 69.42333984 239.71044922 C68.29581953 239.61820337 67.16829922 239.52595752 66.00661162 239.43091634 C60.33333204 238.96676559 54.66005378 238.50259868 48.98677599 238.03842592 C20.27693527 235.68948572 -8.43297155 233.34136692 -37.14335632 230.99908447 C-38.20085126 230.91280884 -39.2583462 230.8265332 -40.34788644 230.73764315 C-49.70788474 229.97402173 -59.06788948 229.21047937 -68.42790926 228.44712114 C-91.4105135 226.57271669 -114.39264212 224.69279014 -137.37367902 222.7992647 C-184.97979036 218.87703933 -232.57043914 215.05952674 -280.25195312 212.17199707 C-291.25087268 211.50501713 -302.24882593 210.82256382 -313.24609375 210.12890625 C-314.42677177 210.05456863 -315.6074498 209.98023102 -316.82390594 209.90364075 C-336.07171581 208.68271131 -355.29326604 207.20733375 -374.51171875 205.59765625 C-375.76444769 205.49286705 -377.01717663 205.38807785 -378.30786705 205.28011322 C-403.88249752 203.12950514 -429.39515376 200.79847609 -454.734375 196.64453125 C-455.94464355 196.44666016 -457.15491211 196.24878906 -458.40185547 196.04492188 C-468.6272829 194.28276944 -478.07082953 192.64172218 -485.984375 185.51953125 C-487.74993028 181.89033429 -487.78911546 178.15885568 -487.109375 174.20703125 C-474.17047188 146.80700111 -331.87921608 98.10383445 -300.33065796 85.38632202 C-280.71351388 77.47657842 -261.16407687 69.41103404 -241.64422607 61.26446533 C-239.1045698 60.20502672 -236.56433701 59.14698239 -234.02392578 58.08935547 C-200.23498212 44.02005323 -166.5706724 29.65988473 -132.91379261 15.27810383 C-127.43887781 12.9387729 -121.96302478 10.60164295 -116.48696899 8.26498413 C-113.09822563 6.81814044 -109.71059184 5.36872216 -106.32299805 3.91918945 C-96.58909562 -0.23903006 -86.84204921 -4.35564339 -77.01953125 -8.30078125 C-76.22340424 -8.62143051 -75.42727722 -8.94207977 -74.60702515 -9.27244568 C-45.25872812 -20.95343154 -25.67920822 -17.49136951 0 0 Z " fill="#FDFDFD" transform="translate(621.109375,33.79296875)"/>
<path d="M0 0 C13.70637947 12.711361 15.12603848 28.46055423 15.9074707 46.21313477 C16.2555837 56.69785729 16.14740077 67.1985642 16.125 77.6875 C16.12302217 79.02374257 16.12112043 80.35998525 16.11929321 81.69622803 C16.09524389 97.23445162 16.06390525 112.77547563 15.73553467 128.31069946 C15.70427837 129.81662145 15.67693085 131.32263134 15.65411377 132.82870483 C15.35211556 151.42244086 13.73959625 172.07292388 0 186 C-11.63235288 196.0217194 -25.3851954 198.7360898 -40.32739258 199.53100586 C-41.118234 199.57367301 -41.90907541 199.61634016 -42.72388172 199.66030025 C-50.7144181 200.06978369 -58.69968599 200.22503419 -66.69921875 200.31640625 C-68.31196789 200.33733902 -69.92471502 200.35842738 -71.53746033 200.37965393 C-76.92073006 200.44819697 -82.3040921 200.50601994 -87.6875 200.5625 C-89.13131672 200.57801029 -89.13131672 200.57801029 -90.60430145 200.59383392 C-188.90016575 201.64447629 -287.21236319 201.00046339 -385.51030731 200.59383392 C-391.76179514 200.56801157 -398.01328547 200.54286427 -404.26477683 200.51791167 C-438.51007309 200.38089102 -472.75509251 200.21362198 -507 200 C-508.19011122 199.99267444 -509.38022243 199.98534887 -510.60639763 199.97780132 C-526.08400206 199.88232973 -541.56142545 199.77362348 -557.03878403 199.64414787 C-561.45992017 199.60741413 -565.88105461 199.57486305 -570.30224991 199.54614449 C-575.43289011 199.51253928 -580.56337214 199.46972024 -585.69387865 199.41978574 C-587.55578548 199.40311929 -589.4177235 199.38956861 -591.27967787 199.37953067 C-610.49737218 199.27158071 -631.14463389 198.56757021 -646.22265625 185 C-661.60803388 168.89567949 -662.63996509 143.79741349 -662.25 122.671875 C-661.58383858 103.28657776 -658.34045012 80.34045012 -644 66 C-624.31208316 51.59420719 -598.38469164 50.34557756 -575.00275286 48.00313075 C-569.21651759 47.41862261 -563.43326502 46.80468203 -557.64960911 46.19527759 C-556.13409049 46.03565636 -554.61853829 45.87635358 -553.10295347 45.71736208 C-535.81598605 43.90302851 -518.55374842 41.8927377 -501.29321289 39.84399414 C-499.75520932 39.66172221 -498.21720279 39.47947516 -496.67919338 39.29725254 C-487.92981674 38.26020074 -479.18099739 37.21850967 -470.43242726 36.17467812 C-461.90376684 35.15723542 -453.37461103 34.14397197 -444.84544604 33.1307693 C-429.56434913 31.315369 -414.28363799 29.49674339 -399.00317383 27.67602539 C-384.37809303 25.93340396 -369.75278586 24.19270027 -355.12719727 22.4543457 C-354.22575232 22.34720216 -353.32430737 22.24005862 -352.39554591 22.1296683 C-348.76517433 21.69817582 -345.1348022 21.26668794 -341.50442911 20.83520824 C-325.56862217 18.94113983 -309.63301338 17.04540515 -293.69742402 15.14950714 C-291.18787213 14.85095352 -288.67831559 14.55243908 -286.16875768 14.25393605 C-267.55068826 12.03933076 -248.93310024 9.82079734 -230.31676787 7.59163302 C-222.07553004 6.60510263 -213.83370794 5.6236903 -205.59117781 4.64801507 C-199.61028215 3.93980028 -193.62991562 3.22722265 -187.64989699 2.51164074 C-184.17808889 2.09636257 -180.70609427 1.68289659 -177.23341572 1.27495587 C-158.33374385 -0.95053188 -139.58114837 -3.68895086 -120.8125 -6.8125 C-118.36998568 -7.21711743 -115.92744284 -7.6215627 -113.48486996 -8.02582645 C-112.41463492 -8.20333189 -111.34439989 -8.38083733 -110.24173349 -8.56372172 C-26.8105791 -22.33367025 -26.8105791 -22.33367025 0 0 Z " fill="#FDFDFD" transform="translate(901,476)"/>
<path d="M0 0 C1.5708797 0.09731604 1.5708797 0.09731604 3.17349434 0.19659805 C28.12732072 1.74332301 53.0492482 3.71680877 77.9719677 5.69332981 C93.68547592 6.93947147 109.40063933 8.16389676 125.1171875 9.37109375 C125.82626928 9.42556443 126.53535106 9.48003511 127.26592016 9.53615642 C152.16326839 11.4467774 177.0671431 13.17234321 201.99609375 14.6171875 C203.2258065 14.68857374 203.2258065 14.68857374 204.48036194 14.76140213 C212.56357526 15.22969897 220.64728454 15.68891272 228.73139381 16.14146328 C243.89747493 16.99065479 259.06004368 17.89670703 274.22198486 18.81658936 C277.52151296 19.01675908 280.82111452 19.21564238 284.12078857 19.41339111 C305.405297 20.6902846 326.68032928 22.07745107 347.95155144 23.55974579 C359.67433752 24.37626304 371.39764995 25.185176 383.12109375 25.9921875 C385.06241621 26.12608887 385.06241621 26.12608887 387.04295731 26.26269531 C422.37539504 28.69527861 457.64694819 30.76568673 493.06494141 31.23706055 C544.87928078 31.98515523 544.87928078 31.98515523 561.64453125 47.8359375 C577.32273169 64.38838704 577.11275512 86.1665601 576.62792969 107.62158203 C576.10306135 120.29423635 572.57889809 131.35813222 564.12109375 140.9921875 C549.91467255 154.04818288 529.38170611 157.15716789 510.9609375 159.31274414 C509.87917236 159.4406109 508.79740723 159.56847765 507.68286133 159.70021915 C496.70160776 160.95836107 485.69824727 161.78471964 474.67636108 162.59047127 C446.45967408 164.68211114 418.32202319 167.45258471 390.18359375 170.40234375 C389.17073445 170.5084811 388.15787515 170.61461845 387.11432314 170.72397208 C374.27056835 172.07090898 361.42819649 173.43078191 348.58632743 174.79556781 C335.99351402 176.13375284 323.39982809 177.46366051 310.80615234 178.79370117 C306.10055011 179.29073646 301.39495397 179.78782947 296.68936157 180.28495789 C295.51824432 180.40867423 294.34712706 180.53239058 293.14052141 180.6598559 C286.00337569 181.41394949 278.86634593 182.1691305 271.72940052 182.92511731 C241.64328601 186.11185193 211.55345407 189.25991559 181.45877051 192.36467749 C173.84050302 193.15075884 166.22249753 193.93933685 158.60467529 194.72972107 C157.54407497 194.83975816 156.48347464 194.94979525 155.39073491 195.0631668 C150.11163364 195.6109597 144.83256464 196.1590624 139.55351639 196.70736599 C129.4488226 197.75644607 119.34368361 198.80079721 109.23730469 199.83352661 C67.15543166 204.13598515 25.23768381 208.72469938 -16.52144241 215.55370903 C-26.53100294 217.18088475 -36.2332281 218.00777107 -46.37890625 218.0546875 C-48.03986328 218.085625 -48.03986328 218.085625 -49.734375 218.1171875 C-61.5669179 218.17280462 -73.92801895 215.61258477 -83.00390625 207.44921875 C-98.26661939 190.7158796 -98.78268011 167.52037455 -99.12890625 146.1796875 C-99.14659058 145.2190036 -99.1642749 144.2583197 -99.18249512 143.26852417 C-99.33006774 135.11431525 -99.42578376 126.9598274 -99.50390625 118.8046875 C-99.51102127 118.06883171 -99.51813629 117.33297592 -99.52546692 116.57482147 C-99.6286145 105.71112267 -99.69704451 94.84758199 -99.73406982 83.98345947 C-99.74584096 80.59370491 -99.76407208 77.20408276 -99.78790283 73.81439209 C-99.81565641 69.75577624 -99.82745739 65.69738913 -99.82810593 61.63868141 C-99.83066645 60.13913 -99.83822571 58.63957633 -99.85149002 57.14008141 C-99.98690751 40.89284052 -98.67195627 23.55708273 -87.31640625 10.8671875 C-66.35288872 -7.94505203 -25.75396257 -1.65022793 0 0 Z " fill="#FDFDFD" transform="translate(339.50390625,279.1953125)"/>
<path d="M0 0 C31.82247978 -2.59878698 31.82247978 -2.59878698 38.8359375 2.953125 C41.70706026 5.99830381 43.87903796 9.40678646 45.89404297 13.06396484 C47.49089822 15.8593428 49.52540058 18.19407443 51.625 20.625 C52.32882813 21.49382813 53.03265625 22.36265625 53.7578125 23.2578125 C56.30253858 26.37000363 58.89625916 29.43719742 61.5 32.5 C66.40563781 38.27533537 71.21808088 44.1216973 76 50 C77.68622162 52.06354879 79.37442421 54.1254667 81.0625 56.1875 C82.375 57.79166667 83.6875 59.39583333 85 61 C92.3464535 53.7306072 99.05733637 46.00420204 105.55859375 37.9765625 C108.78129482 34.04744535 112.09110802 30.19729543 115.40625 26.34619141 C119.74741538 21.30221013 124.0456058 16.22335808 128.33203125 11.1328125 C128.76781494 10.64393555 129.20359863 10.15505859 129.65258789 9.65136719 C131.08159565 7.98420754 131.08159565 7.98420754 132.26733398 5.85644531 C134.00215147 3.24541364 135.35493448 1.71491248 138 0 C143.84406916 -0.99287074 149.5357889 -0.75635954 155.4375 -0.5 C157.04353122 -0.45982897 158.64965886 -0.42333451 160.25585938 -0.390625 C164.17296991 -0.30288594 168.0854183 -0.16510524 172 0 C170.88625 1.546875 170.88625 1.546875 169.75 3.125 C169.21163513 3.8776413 168.67327026 4.63028259 168.11859131 5.4057312 C166 8 166 8 163.05767822 10.59841919 C156.46996398 16.59994464 153.34982801 21.92265094 152.65961838 30.90534782 C152.45651625 36.85704541 152.50961214 42.7889553 152.609375 48.7421875 C152.60931859 51.32293222 152.60396394 53.90368174 152.59356689 56.48440552 C152.58178716 62.54814336 152.62282844 68.60934486 152.69038892 74.6726476 C152.76438941 81.58461134 152.76951457 88.49611696 152.76935911 95.4084146 C152.7705567 109.60657254 152.86569116 123.80249174 153 138 C144.42 138 135.84 138 127 138 C126.67 110.94 126.34 83.88 126 56 C116.02041958 67.49167603 116.02041958 67.49167603 106.3203125 79.17578125 C102.12309202 84.28451931 97.79209625 89.2795692 93.47509766 94.28710938 C90.97798802 97.18676532 88.48915627 100.09351658 86 103 C78.57181567 95.81143452 71.88919777 87.95987062 65.39453125 79.9296875 C62.31335023 76.15989016 59.15808382 72.4555294 55.98095703 68.76635742 C52.4433789 64.624625 49.28955248 60.38606998 46 56 C45.67 83.06 45.34 110.12 45 138 C36.42 138 27.84 138 19 138 C19.01683838 134.57391357 19.03367676 131.14782715 19.05102539 127.61791992 C19.10019613 116.27435783 19.10020841 104.93114692 19.07515812 93.58751965 C19.06116724 86.7124347 19.06374692 79.83812204 19.10620117 72.96313477 C19.14715583 66.3232821 19.14078845 59.68453966 19.10607719 53.04458046 C19.10049573 50.51655969 19.11054131 47.98845266 19.13676643 45.46056175 C19.86231614 29.79213433 19.86231614 29.79213433 13.609375 16.07592773 C12.11443881 14.67172702 10.58253446 13.30468331 9 12 C8.02245901 10.87557191 7.06806355 9.73000966 6.15234375 8.5546875 C4.65348017 6.74124761 3.15344629 4.92877449 1.65234375 3.1171875 C0 1 0 1 0 0 Z " fill="#FDFCFC" transform="translate(18,816)"/>
<path d="M0 0 C31.99029204 -2.42512211 31.99029204 -2.42512211 38.61328125 2.73046875 C41.26676308 5.55833143 43.20561385 8.73915278 44.99658203 12.16650391 C46.49378012 14.90226003 48.46877746 17.14490835 50.5 19.5 C51.2115625 20.3765625 51.923125 21.253125 52.65625 22.15625 C55.39302049 25.47686486 58.1910295 28.74046782 61 32 C65.29972713 36.98940767 69.50485409 42.04221156 73.65625 47.15625 C76.39302049 50.47686486 79.1910295 53.74046782 82 57 C86.29070012 61.97893273 90.48852077 67.01979074 94.62890625 72.125 C98.02671013 76.24490718 101.51539529 80.28529767 105.015625 84.31835938 C107.17059009 86.81163693 109.16932165 89.25398248 111 92 C111.33 61.64 111.66 31.28 112 0 C120.91 0 129.82 0 139 0 C139.02261985 16.36876654 139.04102156 32.73751963 139.05181217 49.10629749 C139.05695679 56.70750808 139.06396436 64.30870823 139.07543945 71.90991211 C139.08544252 78.5392219 139.09186676 85.16852412 139.09408849 91.79784125 C139.09538609 95.30426609 139.09841123 98.8106693 139.10573006 102.31708717 C139.1138559 106.24240127 139.11398753 110.16769467 139.11352539 114.09301758 C139.11712067 115.24101334 139.12071594 116.38900909 139.12442017 117.5717926 C139.11571359 124.43563928 138.75050115 131.17678875 138 138 C117.96214848 140.26262226 117.96214848 140.26262226 111.73242188 136.70507812 C107.86088774 133.33386532 105.02839918 129.23465133 102.26708984 124.93603516 C100.50342032 122.24125686 98.45742462 119.82811801 96.375 117.375 C95.67117188 116.50617188 94.96734375 115.63734375 94.2421875 114.7421875 C91.69746317 111.62999852 89.10381775 108.56273503 86.5 105.5 C82.37886052 100.65051278 78.33008388 95.74838877 74.3125 90.8125 C71.27995997 87.12427564 68.18906001 83.48737146 65.09692383 79.84912109 C61.34616892 75.42832969 57.66933952 70.95064761 54.015625 66.44921875 C52.19661269 64.23890728 50.33134726 62.08356524 48.4375 59.9375 C46 57 46 57 46 55 C45.34 55 44.68 55 44 55 C44 82.39 44 109.78 44 138 C35.75 138 27.5 138 19 138 C19.04882324 132.88443604 19.04882324 132.88443604 19.09863281 127.66552734 C19.19772362 116.35799483 19.23085118 105.05089795 19.23059464 93.74295616 C19.23203024 86.89117195 19.25549837 80.04083914 19.33251953 73.18945312 C19.40688139 66.56893529 19.4176164 59.9502197 19.39070892 53.32921219 C19.39065341 50.81197048 19.41140146 48.2946339 19.4539566 45.77775192 C20.03892662 28.90945546 20.03892662 28.90945546 12.14746094 14.67822266 C10.14684095 12.72626286 8.07617853 10.8733929 6 9 C3.82748796 6.09422017 1.87309496 3.10539427 0 0 Z " fill="#FDFCFC" transform="translate(387,816)"/>
<path d="M0 0 C15.14957492 12.17706022 25.35084193 28.56865575 28 48 C29.75969066 68.46199186 25.37039975 86.82976399 12.5 103.0625 C1.67314787 115.39921927 -11.24033004 123.32696461 -27 128 C-28.22396484 128.36931641 -28.22396484 128.36931641 -29.47265625 128.74609375 C-47.68776993 133.27643935 -67.66240438 129.3384295 -83.83984375 120.4375 C-101.39175747 109.80296041 -113.31497049 93.8572347 -118.875 74.0625 C-122.80355516 54.67849132 -120.08800609 36.02351028 -110 19 C-98.6783136 2.07190158 -81.83798704 -9.38361308 -62 -14 C-39.89941612 -17.81135818 -18.17661364 -13.3659219 0 0 Z M-81.41015625 24.171875 C-92.11736967 36.48385506 -94.83658303 49.02587296 -94.17919922 64.83251953 C-93.20601064 76.60359343 -85.49357598 86.49398356 -76.83203125 93.921875 C-65.58930761 102.17170807 -52.95311366 104.97401314 -39.23046875 103.53125 C-29.39551758 101.91389406 -21.69598427 98.28818227 -14 92 C-13.36320312 91.48824219 -12.72640625 90.97648438 -12.0703125 90.44921875 C-3.44696137 82.72652874 1.36376572 71.54203433 2.2109375 60.16796875 C2.64186142 47.25682528 -1.32432646 34.76575816 -10.25 25.1875 C-29.73288455 7.32818916 -61.54329966 5.71367083 -81.41015625 24.171875 Z " fill="#FDFCFB" transform="translate(336,827)"/>
<path d="M0 0 C3.35415105 2.81856887 6.46395963 5.80466847 9.421875 9.03515625 C4.61418892 15.85581658 -0.90437425 21.93531355 -6.578125 28.03515625 C-9.43318051 26.70824719 -11.75647372 25.1955942 -14.203125 23.22265625 C-26.10423516 14.25306955 -39.21234566 11.02207834 -54.0390625 12.46484375 C-65.54062199 14.31829594 -76.62850077 19.69122029 -84.046875 28.82421875 C-91.8645342 40.11196138 -94.9758301 53.01792074 -93.015625 66.66015625 C-90.64301501 77.27446411 -85.31256407 86.48736395 -76.578125 93.03515625 C-63.65047911 101.23083613 -50.87583329 104.58169876 -35.578125 102.03515625 C-31.41870074 101.01176563 -27.54176416 99.64767517 -23.578125 98.03515625 C-22.74410156 97.79023437 -21.91007813 97.5453125 -21.05078125 97.29296875 C-18.26745194 96.18746361 -17.18632401 95.5999564 -15.578125 93.03515625 C-14.60181345 87.09105586 -15.13151719 81.00853576 -15.578125 75.03515625 C-16.59132813 75.1021875 -17.60453125 75.16921875 -18.6484375 75.23828125 C-22.86772867 75.35341018 -26.47029382 75.10957848 -30.578125 74.03515625 C-33.85569478 70.51414379 -35.07558406 66.54792477 -36.578125 62.03515625 C-37.5254885 59.82209473 -38.48334067 57.61348492 -39.453125 55.41015625 C-41.578125 50.31817512 -41.578125 50.31817512 -41.578125 48.03515625 C-24.088125 48.03515625 -6.598125 48.03515625 11.421875 48.03515625 C11.65347885 55.29207682 11.8735652 62.53543453 11.99112701 69.79284668 C12.0489387 73.17276949 12.12597498 76.54959829 12.25170898 79.92773438 C13.06755513 103.55673283 13.06755513 103.55673283 9.14624023 108.93530273 C6.35860237 111.50735885 3.77215975 113.2820834 0.421875 115.03515625 C-0.72942537 115.87268099 -1.87360481 116.72028232 -3.00390625 117.5859375 C-10.56533316 122.20055663 -18.08413987 125.51350441 -26.578125 128.03515625 C-27.7846875 128.40447266 -27.7846875 128.40447266 -29.015625 128.78125 C-48.19548808 133.60951414 -68.82581933 129.37042767 -85.62890625 119.58203125 C-101.79246916 109.53093646 -113.23401477 93.44121697 -118.453125 75.22265625 C-122.6204298 54.71053322 -119.9345304 34.69098806 -108.578125 17.03515625 C-96.37825391 -0.09117926 -79.21556676 -10.27612671 -58.7578125 -14.5546875 C-37.71687178 -17.26881376 -17.01449638 -13.06290476 0 0 Z " fill="#FDFCFB" transform="translate(972.578125,826.96484375)"/>
<path d="M0 0 C33 0 66 0 100 0 C100 8.58 100 17.16 100 26 C75.91 26 51.82 26 27 26 C27.33 35.9 27.66 45.8 28 56 C30.97 55.34 33.94 54.68 37 54 C39.71473694 53.75949097 39.71473694 53.75949097 41.96899414 53.77294922 C43.25931297 53.77317581 43.25931297 53.77317581 44.57569885 53.77340698 C45.46981979 53.78372955 46.36394073 53.79405212 47.28515625 53.8046875 C48.22685165 53.8075174 49.16854706 53.81034729 50.13877869 53.81326294 C53.11348791 53.82435793 56.08788351 53.84944198 59.0625 53.875 C61.09309458 53.88504363 63.12369392 53.89416704 65.15429688 53.90234375 C70.10307933 53.92255111 75.05119326 53.96171959 80 54 C80 62.58 80 71.16 80 80 C77.55207031 80.04898438 75.10414062 80.09796875 72.58203125 80.1484375 C70.16571835 80.20271301 67.7494908 80.259915 65.33325195 80.31738281 C63.67609224 80.35526075 62.01886174 80.39017866 60.36157227 80.421875 C43.95544749 80.58886704 43.95544749 80.58886704 28 84 C27.67 93.24 27.34 102.48 27 112 C53.4 112 79.8 112 107 112 C107.70283889 115.51419446 108.12764808 118.10778758 108.1328125 121.57421875 C108.13410156 122.40630859 108.13539062 123.23839844 108.13671875 124.09570312 C108.13285156 124.95099609 108.12898438 125.80628906 108.125 126.6875 C108.12886719 127.55439453 108.13273437 128.42128906 108.13671875 129.31445312 C108.13542969 130.14267578 108.13414063 130.97089844 108.1328125 131.82421875 C108.13168457 132.57791748 108.13055664 133.33161621 108.12939453 134.1081543 C108 136 108 136 107 138 C71.69 138 36.38 138 0 138 C0 92.46 0 46.92 0 0 Z " fill="#FDFCFB" transform="translate(1027,816)"/>
<path d="M0 0 C0.94939453 -0.020625 1.89878906 -0.04125 2.87695312 -0.0625 C3.78767578 -0.06765625 4.69839844 -0.0728125 5.63671875 -0.078125 C6.46260498 -0.0874707 7.28849121 -0.09681641 8.1394043 -0.10644531 C10.94654391 0.35400001 11.60846675 0.97903274 13.3125 3.25 C14.48666589 5.39286168 15.58906592 7.57546874 16.6484375 9.77734375 C17.12125404 10.75436752 17.12125404 10.75436752 17.60362244 11.75112915 C18.63802586 13.89355002 19.6629588 16.04034747 20.6875 18.1875 C21.41268417 19.69603622 22.13819278 21.20441651 22.86401367 22.71264648 C27.72064019 32.82578568 32.47560203 42.98417244 37.17431641 53.17163086 C41.89706508 63.3994811 46.72183268 73.5774989 51.5625 83.75 C52.3686762 85.44481287 53.17482855 87.13963709 53.98095703 88.83447266 C55.19696833 91.39093513 56.41300153 93.94738715 57.62915039 96.50378418 C61.71417514 105.09179638 65.79255432 113.682937 69.85998535 122.27929688 C70.61715304 123.87876194 71.37504161 125.47788596 72.13366699 127.07666016 C73.17816524 129.2781179 74.22026333 131.48069526 75.26171875 133.68359375 C75.57322372 134.3388353 75.8847287 134.99407684 76.20567322 135.66917419 C78.3125 140.13578652 78.3125 140.13578652 78.3125 141.25 C68.4125 141.25 58.5125 141.25 48.3125 141.25 C45.6725 135.31 43.0325 129.37 40.3125 123.25 C33.62715863 123.15001215 26.94226669 123.07800954 20.25634766 123.03027344 C17.98901777 123.01034228 15.72173803 122.98318732 13.45458984 122.94824219 C-11.06184696 122.17620111 -11.06184696 122.17620111 -32.6875 132.25 C-34.3375 135.22 -35.9875 138.19 -37.6875 141.25 C-47.2575 141.25 -56.8275 141.25 -66.6875 141.25 C-59.91812675 125.95859607 -52.71848413 110.92925768 -45.3125 95.9375 C-43.17787872 91.60896241 -41.0453317 87.27940773 -38.9140625 82.94921875 C-38.392677 81.8904805 -37.8712915 80.83174225 -37.33410645 79.74092102 C-33.3106111 71.55546886 -29.36369349 63.33510843 -25.44345093 55.09979248 C-22.99280243 49.9574277 -20.50683872 44.8380681 -17.953125 39.74609375 C-17.44265625 38.71935547 -16.9321875 37.69261719 -16.40625 36.63476562 C-15.39123354 34.59798393 -14.36441224 32.56705778 -13.328125 30.54101562 C-12.833125 29.53619141 -12.338125 28.53136719 -11.828125 27.49609375 C-11.17118652 26.19176392 -11.17118652 26.19176392 -10.50097656 24.86108398 C-8.73142635 19.18121018 -11.41198791 14.09631554 -13.75 8.9375 C-16.6875 2.34324943 -16.6875 2.34324943 -16.6875 1.25 C-11.12167939 0.09395016 -5.65923263 0.03111606 0 0 Z M5.3125 52.25 C-2.34693366 66.94407968 -8.98119573 82.10554366 -15.6875 97.25 C-11.70804178 98.40294742 -8.35494603 97.95862078 -4.3125 97.375 C6.19309243 95.98329845 16.72952068 95.61325002 27.3125 95.25 C25.76188869 90.01577684 23.47037851 85.38983853 20.9609375 80.5703125 C20.54204254 79.75754852 20.12314758 78.94478455 19.69155884 78.10739136 C18.36089594 75.527826 17.02429742 72.9513907 15.6875 70.375 C14.78085555 68.61999539 13.87460129 66.86478914 12.96875 65.109375 C10.75451054 60.82056914 8.53494479 56.53455923 6.3125 52.25 C5.9825 52.25 5.6525 52.25 5.3125 52.25 Z " fill="#FDFCFB" transform="translate(759.6875,812.75)"/>
<path d="M0 0 C39.27 0 78.54 0 119 0 C119 8.58 119 17.16 119 26 C103.82 26 88.64 26 73 26 C73 62.96 73 99.92 73 138 C64.42 138 55.84 138 47 138 C47 101.04 47 64.08 47 26 C31.49 26 15.98 26 0 26 C0 17.42 0 8.84 0 0 Z " fill="#FDFCFC" transform="translate(561,816)"/>
<path d="M0 0 C4.86015042 5.21767873 6.20117446 10.98124666 6 18 C5.36386844 23.43603331 3.45093142 27.73708472 0 32 C-2.90117212 33.79713199 -5.1673046 34.29526551 -8.5625 34.3125 C-9.32691406 34.32925781 -10.09132813 34.34601563 -10.87890625 34.36328125 C-13.47897923 33.91796488 -14.34831388 32.99996498 -16 31 C-16.474375 31.495 -16.94875 31.99 -17.4375 32.5 C-21.2411527 34.72652841 -24.70091882 34.78882224 -29 34 C-31.5625 32.25 -31.5625 32.25 -33 29 C-33.8803367 23.10005113 -33.89165728 17.70932826 -30.875 12.4375 C-28.383849 9.07864472 -26.07849334 7.223548 -22 6 C-17.74341661 6.21643644 -15.55991776 6.62672149 -12 9 C-11.34 8.34 -10.68 7.68 -10 7 C-9.01 7 -8.02 7 -7 7 C-7.79263616 14.76783437 -9.41889487 22.3629639 -11 30 C-5.24604133 29.19298879 -5.24604133 29.19298879 -1 25.625 C0.75006737 19.28100578 1.4769008 12.06570073 -1.5625 6 C-5.47726995 1.18182161 -9.35501195 -0.95046431 -15.375 -1.875 C-22.78480108 -2.39254999 -29.23869776 -0.82341583 -35 4 C-39.81671012 9.88709014 -41.4448055 16.35861807 -41.265625 23.9140625 C-40.7714603 27.79470881 -39.38509559 31.36143283 -38 35 C-37.67 35.99 -37.34 36.98 -37 38 C-29.67456484 42.61231103 -21.37224768 42.80042368 -13 42 C-10.19955148 41.12623081 -7.69914477 40.10178498 -5.0859375 38.77734375 C-2.61818644 37.85771367 -1.43938935 38.12248211 1 39 C0 42 0 42 -1.70703125 43.1328125 C-2.40183594 43.46023438 -3.09664062 43.78765625 -3.8125 44.125 C-4.49957031 44.45757813 -5.18664062 44.79015625 -5.89453125 45.1328125 C-13.68886282 48.34309378 -25.14848109 48.60810085 -33.0625 45.5 C-38.56875471 42.52535665 -42.79004245 37.93789025 -45.16796875 32.1640625 C-47.61872611 22.84428098 -46.70244836 13.39612066 -42 5 C-37.74066368 -1.63955367 -31.45824945 -4.6720108 -24.0625 -6.875 C-14.63563706 -7.25976992 -7.46338086 -6.17241769 0 0 Z M-25 12 C-28.37741153 16.12794743 -29.14624018 20.77435077 -29 26 C-28.15479867 28.65844217 -28.15479867 28.65844217 -26 30 C-22.52723385 30.59110913 -20.77497235 30.50926754 -17.8125 28.5625 C-15.2681569 24.96532528 -13.80520476 21.33571794 -13 17 C-13.85153905 12.99776647 -14.54891128 12.30072582 -18 10 C-21.21534057 10 -22.35582586 10.26476072 -25 12 Z " fill="#FBF3F1" transform="translate(821,1025)"/>
<path d="M0 0 C6.51010063 0.0844371 11.72534696 0.30481656 16.875 4.6875 C20.23143153 8.75590185 20.26065424 11.54597398 20.23828125 16.69921875 C19.82623743 20.10794492 18.40532052 21.87391826 15.9375 24.1875 C16.41960938 24.56261719 16.90171875 24.93773437 17.3984375 25.32421875 C24.11487789 30.76590617 24.11487789 30.76590617 24.9375 35.1875 C25.06901194 39.90439476 24.64011268 43.82479188 21.6875 47.625 C16.1289258 52.8045805 10.85927804 52.44542666 3.625 52.3125 C2.69365234 52.30347656 1.76230469 52.29445313 0.80273438 52.28515625 C-1.4859436 52.26168263 -3.77408672 52.22884729 -6.0625 52.1875 C-6.08776739 44.94263449 -6.1053318 37.69778026 -6.11743164 30.45288086 C-6.12247356 27.98607967 -6.12930691 25.51928148 -6.13793945 23.05249023 C-6.15001125 19.51545471 -6.15572956 15.97845855 -6.16015625 12.44140625 C-6.16531754 11.33100479 -6.17047882 10.22060333 -6.17579651 9.07655334 C-6.17587204 8.05557053 -6.17594757 7.03458771 -6.17602539 5.98266602 C-6.178246 5.07887711 -6.18046661 4.1750882 -6.18275452 3.24391174 C-5.94659912 -0.79446236 -3.48492448 0.02396784 0 0 Z M-0.0625 6.1875 C-0.08934679 8.83340014 -0.10926357 11.47903096 -0.125 14.125 C-0.13337891 14.87974609 -0.14175781 15.63449219 -0.15039062 16.41210938 C-0.15902441 18.33744313 -0.11474333 20.26285581 -0.0625 22.1875 C0.92877703 23.4120768 0.92877703 23.4120768 2.86328125 23.20703125 C6.57774717 22.88482717 9.28082841 22.58790951 12.5 20.625 C14.69060355 16.91049833 14.41379394 14.47414542 13.9375 10.1875 C12.39411909 8.01273599 11.30084727 7.36917363 8.9375 6.1875 C7.39726004 6.11799459 5.85415012 6.10297643 4.3125 6.125 C3.49523437 6.13402344 2.67796875 6.14304687 1.8359375 6.15234375 C1.20945312 6.16394531 0.58296875 6.17554688 -0.0625 6.1875 Z M-0.0625 28.1875 C-0.08933987 31.16672593 -0.10926037 34.14571295 -0.125 37.125 C-0.13337891 37.97513672 -0.14175781 38.82527344 -0.15039062 39.70117188 C-0.15361328 40.51005859 -0.15683594 41.31894531 -0.16015625 42.15234375 C-0.16539307 42.9012085 -0.17062988 43.65007324 -0.17602539 44.42163086 C-0.25591752 46.21417739 -0.25591752 46.21417739 0.9375 47.1875 C6.85976194 47.76745785 11.91697634 47.70186656 16.9375 44.1875 C19.10972379 41.54305365 18.93643321 40.15762982 18.8125 36.6875 C17.86006805 32.87777219 17.01543835 31.54121756 13.9375 29.1875 C10.78819107 28.13773036 8.54935544 28.08618405 5.25 28.125 C4.25613281 28.13402344 3.26226563 28.14304687 2.23828125 28.15234375 C1.47902344 28.16394531 0.71976563 28.17554688 -0.0625 28.1875 Z " fill="#FBF4F2" transform="translate(860.0625,1018.8125)"/>
<path d="M0 0 C1.98 0 3.96 0 6 0 C6 18.48 6 36.96 6 56 C4.02 56 2.04 56 0 56 C-0.33 55.01 -0.66 54.02 -1 53 C-1.598125 53.66 -2.19625 54.32 -2.8125 55 C-7.47722919 57.9268889 -11.63063721 57.75802769 -17 57 C-21.84466601 54.88596392 -24.20435593 52.0003775 -26.30859375 47.28125 C-27.92981077 41.93214978 -27.65871548 36.93955113 -25.875 31.6875 C-22.99644284 27.56156808 -19.86637047 24.62212349 -15 23 C-9.73812253 22.60287717 -6.53642461 23.29974725 -2 26 C-1.67 26.33 -1.34 26.66 -1 27 C-0.67 18.09 -0.34 9.18 0 0 Z M-20 33 C-21.86233425 36.72466849 -21.57130829 40.94495313 -21 45 C-19.3279253 48.12578143 -17.2143765 50.39281175 -14 52 C-10.13110388 52.43964729 -8.24334506 52.12635224 -4.75 50.3125 C-0.761385 46.95843739 -0.18041156 44.65377261 0.375 39.5625 C-0.07015297 35.33354681 -1.34775853 33.27629828 -4 30 C-9.70452401 27.147738 -15.73693325 28.47049158 -20 33 Z " fill="#FBF3F1" transform="translate(952,1015)"/>
<path d="M0 0 C3.375 2 3.375 2 6 4 C6.40476563 3.52304688 6.80953125 3.04609375 7.2265625 2.5546875 C10.31630292 -0.15393956 14.01381227 -0.11208964 18 0 C21.29804934 1.26308272 22.5464909 2.08832178 24.11669922 5.24487305 C25.09927584 8.3096539 25.22827178 10.74350131 25.1953125 13.95703125 C25.18886719 15.06884766 25.18242187 16.18066406 25.17578125 17.32617188 C25.15902344 18.47666016 25.14226562 19.62714844 25.125 20.8125 C25.11597656 21.98232422 25.10695312 23.15214844 25.09765625 24.35742188 C25.07413732 27.23849053 25.04126852 30.11913989 25 33 C23.02 33 21.04 33 19 33 C18.98541748 32.2886792 18.97083496 31.5773584 18.95581055 30.84448242 C18.88138994 27.62493668 18.78471 24.40643482 18.6875 21.1875 C18.65366211 19.50817383 18.65366211 19.50817383 18.61914062 17.79492188 C18.58369141 16.72177734 18.54824219 15.64863281 18.51171875 14.54296875 C18.48553467 13.55321045 18.45935059 12.56345215 18.43237305 11.54370117 C18.18719153 8.97299007 18.18719153 8.97299007 16.66333008 7.1418457 C14.90548875 5.68456056 14.90548875 5.68456056 11.875 6.1875 C10.92625 6.455625 9.9775 6.72375 9 7 C7.73160901 9.53678197 7.68833709 11.61439681 7.46484375 14.4453125 C7.37783203 15.52167969 7.29082031 16.59804687 7.20117188 17.70703125 C7.11416016 18.83496094 7.02714844 19.96289062 6.9375 21.125 C6.84662109 22.26066406 6.75574219 23.39632813 6.66210938 24.56640625 C6.43770774 27.37733201 6.21716834 30.18850766 6 33 C4.35 33 2.7 33 1 33 C0.97494385 32.31897217 0.9498877 31.63794434 0.92407227 30.9362793 C0.80809048 27.85316245 0.68537384 24.77034954 0.5625 21.6875 C0.52318359 20.61564453 0.48386719 19.54378906 0.44335938 18.43945312 C0.40146484 17.41142578 0.35957031 16.38339844 0.31640625 15.32421875 C0.27974854 14.37635498 0.24309082 13.42849121 0.20532227 12.4519043 C0.08569813 9.863829 0.08569813 9.863829 -1 7 C-3.85778033 6.31506627 -3.85778033 6.31506627 -7 6 C-10.24849977 7.72226496 -10.24849977 7.72226496 -11 11 C-11.14777936 12.69867188 -11.24747066 14.40177489 -11.31640625 16.10546875 C-11.35830078 17.08837891 -11.40019531 18.07128906 -11.44335938 19.08398438 C-11.48267578 20.10814453 -11.52199219 21.13230469 -11.5625 22.1875 C-11.62727539 23.74114258 -11.62727539 23.74114258 -11.69335938 25.32617188 C-11.79944366 27.8839819 -11.90150146 30.44188845 -12 33 C-13.98 33 -15.96 33 -18 33 C-18 22.44 -18 11.88 -18 1 C-16.02 1 -14.04 1 -12 1 C-11.67 1.66 -11.34 2.32 -11 3 C-10.29875 2.505 -9.5975 2.01 -8.875 1.5 C-5.48475614 -0.26882288 -3.77553457 -0.53936208 0 0 Z " fill="#FBF5F3" transform="translate(227,1038)"/>
<path d="M0 0 C5.02297226 2.92245659 7.07100017 6.15020003 8.59375 11.59765625 C9.5195626 17.07241346 8.82422504 21.38207678 6.3125 26.3125 C3.14274237 29.99627238 0.54538023 32.63637425 -4.43359375 33.34765625 C-10.06680669 33.54017319 -11.85975696 33.08414582 -17 30 C-17.33 36.6 -17.66 43.2 -18 50 C-19.98 50 -21.96 50 -24 50 C-24 33.5 -24 17 -24 0 C-22.02 0 -20.04 0 -18 0 C-17.67 0.99 -17.34 1.98 -17 3 C-16.401875 2.525625 -15.80375 2.05125 -15.1875 1.5625 C-10.36236048 -1.88402823 -5.54612786 -1.22671364 0 0 Z M-17.21875 9.0234375 C-18.80298092 13.03154173 -18.82960375 16.80438106 -18 21 C-16.6869999 23.99339931 -15.67427521 24.8271514 -13 27 C-9.06683448 28.39563938 -6.08598164 28.41025973 -2.1875 26.9375 C0.6546128 24.42020009 1.79264122 22.62207634 3 19 C3.28395443 14.26464235 2.60771794 10.96058643 0.0625 6.9375 C-5.61114364 3.34805198 -13.08614256 2.79500772 -17.21875 9.0234375 Z " fill="#FBF5F3" transform="translate(480,1039)"/>
<path d="M0 0 C2.5625 1.5625 2.5625 1.5625 4 3 C4.40476562 2.52433594 4.80953125 2.04867188 5.2265625 1.55859375 C8.31908041 -1.15927992 11.99961536 -1.23200825 16 -1 C20.15263212 1.29720075 21.56004767 3.58183781 23 8 C23.22705078 10.77075195 23.22705078 10.77075195 23.1953125 13.73828125 C23.18886719 14.80498047 23.18242187 15.87167969 23.17578125 16.97070312 C23.15902344 18.07349609 23.14226562 19.17628906 23.125 20.3125 C23.11597656 21.43462891 23.10695313 22.55675781 23.09765625 23.71289062 C23.07414486 26.47547909 23.04128155 29.23762932 23 32 C21.02 32 19.04 32 17 32 C16.97494385 31.31897217 16.9498877 30.63794434 16.92407227 29.9362793 C16.80809048 26.85316245 16.68537384 23.77034954 16.5625 20.6875 C16.52318359 19.61564453 16.48386719 18.54378906 16.44335938 17.43945312 C16.40146484 16.41142578 16.35957031 15.38339844 16.31640625 14.32421875 C16.26141968 12.9024231 16.26141968 12.9024231 16.20532227 11.4519043 C16.08569813 8.863829 16.08569813 8.863829 15 6 C12.14221967 5.31506627 12.14221967 5.31506627 9 5 C5.93964457 6.61474541 5.93964457 6.61474541 5.33227539 8.81347656 C4.9674002 11.21452155 4.78717791 13.55754607 4.68359375 15.984375 C4.64169922 16.91894531 4.59980469 17.85351562 4.55664062 18.81640625 C4.51732422 19.78449219 4.47800781 20.75257812 4.4375 21.75 C4.39431641 22.73355469 4.35113281 23.71710938 4.30664062 24.73046875 C4.20077948 27.15351275 4.09869829 29.5766554 4 32 C2.02 32 0.04 32 -2 32 C-2.33 23.09 -2.66 14.18 -3 5 C-8.66933332 4.41053093 -8.66933332 4.41053093 -11.3125 6.6875 C-14.7795398 11.43862861 -14.28867973 17.62511831 -14.5625 23.3125 C-14.60568359 24.14845703 -14.64886719 24.98441406 -14.69335938 25.84570312 C-14.79885307 27.89696935 -14.89987315 29.9484648 -15 32 C-16.65 32 -18.3 32 -20 32 C-20 21.44 -20 10.88 -20 0 C-18.35 0 -16.7 0 -15 0 C-14.67 0.66 -14.34 1.32 -14 2 C-13.0409375 1.2265625 -13.0409375 1.2265625 -12.0625 0.4375 C-7.82843253 -1.54991942 -4.47587377 -1.12731895 0 0 Z " fill="#FBF6F4" transform="translate(335,1039)"/>
<path d="M0 0 C15.86666667 0 15.86666667 0 21.9375 3.875 C25.26051327 7.29871064 26.30093876 10.12026812 26.375 14.875 C26.26203206 19.66907708 25.33837445 22.39806967 22 26 C16.8247846 29.49026155 13.74938443 29.2500684 7 30 C6.67 37.26 6.34 44.52 6 52 C4.02 52 2.04 52 0 52 C0 34.84 0 17.68 0 0 Z M6 6 C6 11.94 6 17.88 6 24 C13.15672446 24.0267017 13.15672446 24.0267017 19 21 C20.59745879 17.80508241 20.50816842 14.46790611 20 11 C17.79259319 8.03141843 16.51402627 7.17134209 13 6 C10.69 6 8.38 6 6 6 Z " fill="#FBF5F2" transform="translate(119,1019)"/>
<path d="M0 0 C1.98 0 3.96 0 6 0 C9.81428725 8.09573486 13.14163585 16.32111621 16.3125 24.6875 C16.9940918 26.47317383 16.9940918 26.47317383 17.68945312 28.29492188 C18.79607905 31.19544666 19.89953179 34.09713465 21 37 C23.49908586 34.50091414 24.22298867 32.22615097 25.49609375 28.92578125 C25.97240234 27.70052734 26.44871094 26.47527344 26.93945312 25.21289062 C27.43904055 23.91285203 27.9383876 22.61272104 28.4375 21.3125 C29.17645852 19.40020008 29.91692512 17.48849552 30.65846252 15.57719421 C31.33545343 13.83024951 32.00853427 12.08179103 32.68139648 10.33325195 C34.05655431 6.85703832 35.51228599 3.42927462 37 0 C38.98 0 40.96 0 43 0 C42.29115592 4.69984403 40.5885879 8.82760857 38.796875 13.1953125 C38.47720764 13.98340302 38.15754028 14.77149353 37.82818604 15.58346558 C37.15106044 17.25018085 36.47179206 18.91602698 35.79052734 20.58105469 C34.7628163 23.09366591 33.742168 25.60905237 32.72265625 28.125 C29.31917187 36.49787068 25.85430506 44.82163214 22 53 C19.90357461 50.36637239 18.39027438 47.91956196 17.13061523 44.80151367 C16.63010902 43.57455025 16.63010902 43.57455025 16.11949158 42.32279968 C15.76939529 41.44670547 15.41929901 40.57061127 15.05859375 39.66796875 C14.69024918 38.75799637 14.3219046 37.84802399 13.94239807 36.91047668 C13.16555006 34.9876036 12.391603 33.06355631 11.62036133 31.13842773 C10.44486061 28.20586278 9.25933183 25.27750904 8.07226562 22.34960938 C7.31710773 20.47680457 6.56253135 18.60376515 5.80859375 16.73046875 C5.45647324 15.86044724 5.10435272 14.99042572 4.74156189 14.09403992 C2.88347239 9.44243279 1.27648367 4.84458477 0 0 Z " fill="#FBF5F3" transform="translate(595,1019)"/>
<path d="M0 0 C2.625 1.5625 2.625 1.5625 3.625 2.5625 C3.955 1.5725 4.285 0.5825 4.625 -0.4375 C6.275 -0.4375 7.925 -0.4375 9.625 -0.4375 C9.625 10.1225 9.625 20.6825 9.625 31.5625 C7.975 31.5625 6.325 31.5625 4.625 31.5625 C4.295 30.5725 3.965 29.5825 3.625 28.5625 C3.191875 29.036875 2.75875 29.51125 2.3125 30 C-1.1643234 33.21928093 -5.3894959 32.90117182 -9.87109375 32.8359375 C-13.65676552 32.42252561 -15.60565712 31.13403267 -18.375 28.5625 C-22.81814215 22.83318513 -23.24869712 17.69229997 -22.375 10.5625 C-20.61192004 5.27326013 -17.76344888 2.76241064 -13.375 -0.4375 C-8.51592711 -2.05719096 -4.728558 -2.01401544 0 0 Z M-15.375 8.5625 C-17.21843062 12.24936123 -16.7306682 16.52947667 -16.375 20.5625 C-15.11524675 23.5859078 -14.18521593 24.97579191 -11.5625 26.875 C-7.60127369 28.11995684 -4.54797908 28.02623592 -0.6875 26.5 C2.51316588 23.81836102 3.44633913 21.55685074 4.625 17.5625 C4.91358549 13.08942498 4.11772405 10.30158608 1.625 6.5625 C-1.9248867 4.19590887 -4.03300014 3.89869001 -8.21875 4.12890625 C-11.40512361 4.76964442 -13.17830678 6.22851346 -15.375 8.5625 Z " fill="#FCF7F5" transform="translate(710.375,1039.4375)"/>
<path d="M0 0 C3.53589169 2.30601632 5.57031619 4.31920213 7.875 7.875 C8.205 10.845 8.535 13.815 8.875 16.875 C0.295 16.875 -8.285 16.875 -17.125 16.875 C-14.85387725 23.42299669 -14.85387725 23.42299669 -10.125 26.875 C-5.89870544 27.25234773 -2.69093101 27.2947389 0.875 24.875 C2.58421589 23.3337688 2.58421589 23.3337688 3.875 21.875 C4.865 22.535 5.855 23.195 6.875 23.875 C6.53532174 27.04533042 5.87630809 27.87382607 3.4375 30.0625 C-1.59016211 33.61865125 -6.08875899 33.35614965 -12.125 32.875 C-17.23831014 30.80791718 -20.05129205 27.07354486 -22.4375 22.1875 C-23.66900765 16.25387224 -23.10833759 10.9990092 -20.5625 5.5 C-14.87616572 -0.62374461 -8.07614747 -2.90741309 0 0 Z M-16.125 8.875 C-16.455 10.195 -16.785 11.515 -17.125 12.875 C-10.525 12.875 -3.925 12.875 2.875 12.875 C1.56202878 6.88961763 1.56202878 6.88961763 -2.125 4.875 C-7.85473477 3.95223373 -12.10993474 4.35805159 -16.125 8.875 Z " fill="#FBF6F4" transform="translate(531.125,1039.125)"/>
<path d="M0 0 C4.49322252 2.45855572 6.6968496 4.96554879 8.3125 9.8125 C8.3125 12.1225 8.3125 14.4325 8.3125 16.8125 C0.0625 16.8125 -8.1875 16.8125 -16.6875 16.8125 C-15.42702177 23.42823381 -15.42702177 23.42823381 -12.625 25.8125 C-8.54767012 27.20052719 -4.81936184 27.0350359 -0.6875 25.8125 C0.32227924 24.82237583 1.32364103 23.82351827 2.3125 22.8125 C5 23.125 5 23.125 7.3125 23.8125 C6.04340537 27.72554179 4.84993024 29.66860288 1.3125 31.8125 C-4.46543782 33.73847927 -10.53977999 33.74968691 -16.125 31.3125 C-20.74886327 26.80141388 -22.88098378 22.29521742 -23.25 15.8125 C-23.00390017 10.48033693 -21.27829477 6.73795322 -17.6875 2.8125 C-12.10774576 -1.87926485 -6.78211417 -2.18407066 0 0 Z M-16.6875 9.8125 C-16.6875 10.8025 -16.6875 11.7925 -16.6875 12.8125 C-10.0875 12.8125 -3.4875 12.8125 3.3125 12.8125 C1.46378154 7.52627639 1.46378154 7.52627639 -2.6875 4.8125 C-8.99167411 3.73819318 -12.75966518 4.36421299 -16.6875 9.8125 Z " fill="#FCF6F5" transform="translate(193.6875,1039.1875)"/>
<path d="M0 0 C3.53589169 2.30601632 5.57031619 4.31920213 7.875 7.875 C8.205 10.845 8.535 13.815 8.875 16.875 C0.295 16.875 -8.285 16.875 -17.125 16.875 C-14.125 24.875 -14.125 24.875 -9.125 26.875 C-5.03377238 27.40863839 -3.53554628 27.15149036 -0.0625 24.8125 C2.875 22.875 2.875 22.875 5.75 23.125 C6.45125 23.3725 7.1525 23.62 7.875 23.875 C6.96151532 27.52893872 5.93736171 28.82590674 2.9375 31.1875 C-1.87731074 33.65534233 -6.85377918 33.65533178 -12.125 32.875 C-16.99510775 30.57276725 -19.8888768 27.7772701 -22.125 22.875 C-22.86435449 16.95261961 -23.01806833 11.76036648 -20.4375 6.3125 C-14.38500438 -0.06715755 -8.81520416 -3.1734735 0 0 Z M-16.125 9.875 C-16.125 10.865 -16.125 11.855 -16.125 12.875 C-9.855 12.875 -3.585 12.875 2.875 12.875 C2.33992825 8.14520868 2.33992825 8.14520868 0.375 6.0625 C-6.14095494 2.9674214 -11.83398773 3.92295073 -16.125 9.875 Z " fill="#FCF7F5" transform="translate(1016.125,1039.125)"/>
<path d="M0 0 C1.30066406 -0.00128906 2.60132813 -0.00257813 3.94140625 -0.00390625 C4.96258545 -0.00076416 4.96258545 -0.00076416 6.00439453 0.00244141 C8.08503515 0.0077901 10.16545989 0.0024957 12.24609375 -0.00390625 C14.19708984 -0.00197266 14.19708984 -0.00197266 16.1875 0 C17.39083984 0.00112793 18.59417969 0.00225586 19.83398438 0.00341797 C22.59375 0.1328125 22.59375 0.1328125 23.59375 1.1328125 C23.59375 2.7828125 23.59375 4.4328125 23.59375 6.1328125 C19.63375 6.1328125 15.67375 6.1328125 11.59375 6.1328125 C11.59375 21.3128125 11.59375 36.4928125 11.59375 52.1328125 C9.61375 52.1328125 7.63375 52.1328125 5.59375 52.1328125 C5.59375 36.9528125 5.59375 21.7728125 5.59375 6.1328125 C1.63375 6.1328125 -2.32625 6.1328125 -6.40625 6.1328125 C-6.73625 4.4828125 -7.06625 2.8328125 -7.40625 1.1328125 C-5.54910943 -0.72432807 -2.48117951 0.00232569 0 0 Z " fill="#FAEFEB" transform="translate(391.40625,1018.8671875)"/>
<path d="M0 0 C1.2065625 0.0309375 1.2065625 0.0309375 2.4375 0.0625 C2.4468457 0.73829102 2.45619141 1.41408203 2.46582031 2.11035156 C2.51957301 5.1784711 2.60320992 8.24507387 2.6875 11.3125 C2.70167969 12.37597656 2.71585937 13.43945312 2.73046875 14.53515625 C2.76269531 15.55996094 2.79492188 16.58476563 2.828125 17.640625 C2.84907227 18.58325195 2.87001953 19.52587891 2.89160156 20.49707031 C3.59554597 23.80523126 4.75994025 25.04329793 7.4375 27.0625 C11.10114808 27.0752038 11.10114808 27.0752038 14.4375 26.0625 C15.72355661 23.49038678 15.64793941 21.49343034 15.75390625 18.6171875 C15.79580078 17.54082031 15.83769531 16.46445313 15.88085938 15.35546875 C15.92017578 14.22753906 15.95949219 13.09960938 16 11.9375 C16.04318359 10.80183594 16.08636719 9.66617187 16.13085938 8.49609375 C16.2371604 5.68502232 16.33919405 2.87386055 16.4375 0.0625 C18.4175 0.0625 20.3975 0.0625 22.4375 0.0625 C22.52501413 3.93735635 22.57806435 7.81195643 22.625 11.6875 C22.65013672 12.78191406 22.67527344 13.87632813 22.70117188 15.00390625 C22.79567085 25.39879307 22.79567085 25.39879307 19.4375 30.0625 C17.1906438 32.31410642 15.96684544 32.98203318 12.81640625 33.4609375 C3.11063269 33.38016823 3.11063269 33.38016823 -0.5625 30.0625 C-4.44569002 24.43187447 -3.71724813 16.79954607 -3.6875 10.25 C-3.69136719 9.37923828 -3.69523437 8.50847656 -3.69921875 7.61132812 C-3.69792969 6.78439453 -3.69664062 5.95746094 -3.6953125 5.10546875 C-3.69418457 4.35289795 -3.69305664 3.60032715 -3.69189453 2.82495117 C-3.48016202 -0.05900546 -2.89696036 0.07065757 0 0 Z " fill="#FBF4F1" transform="translate(282.5625,1038.9375)"/>
<path d="M0 0 C1.2065625 0.0309375 1.2065625 0.0309375 2.4375 0.0625 C2.45731934 0.70799805 2.47713867 1.35349609 2.49755859 2.01855469 C2.59296328 4.95027221 2.70257971 7.88129232 2.8125 10.8125 C2.8434375 11.82828125 2.874375 12.8440625 2.90625 13.890625 C2.94492187 14.8703125 2.98359375 15.85 3.0234375 16.859375 C3.0548584 17.76010742 3.0862793 18.66083984 3.11865234 19.58886719 C3.45777978 22.21983137 3.93737418 23.87545824 5.4375 26.0625 C8.85416667 27.14583333 8.85416667 27.14583333 12.4375 27.0625 C14.24081052 25.96305293 14.24081052 25.96305293 15.4375 24.0625 C15.92548985 21.56946409 15.92548985 21.56946409 15.9140625 18.7734375 C15.945 17.74992187 15.9759375 16.72640625 16.0078125 15.671875 C16.02585937 14.60453125 16.04390625 13.5371875 16.0625 12.4375 C16.11327422 10.32021504 16.1677548 8.20301456 16.2265625 6.0859375 C16.24412598 5.14669434 16.26168945 4.20745117 16.27978516 3.23974609 C16.4375 1.0625 16.4375 1.0625 17.4375 0.0625 C19.10367115 0.02186168 20.77138095 0.019779 22.4375 0.0625 C22.52501413 3.93735635 22.57806435 7.81195643 22.625 11.6875 C22.65013672 12.78191406 22.67527344 13.87632813 22.70117188 15.00390625 C22.79567085 25.39879307 22.79567085 25.39879307 19.4375 30.0625 C17.1906438 32.31410642 15.96684544 32.98203318 12.81640625 33.4609375 C3.11063269 33.38016823 3.11063269 33.38016823 -0.5625 30.0625 C-4.54977915 24.48030919 -3.71951973 16.27289139 -3.6875 9.6875 C-3.69136719 8.86894531 -3.69523438 8.05039063 -3.69921875 7.20703125 C-3.68741594 0.08993697 -3.68741594 0.08993697 0 0 Z " fill="#FBF4F1" transform="translate(895.5625,1038.9375)"/>
<path d="M0 0 C3.0625 -0.5625 3.0625 -0.5625 7 0 C9.80901416 2.68428959 12.01782814 5.66223948 14 9 C14 9.66 14 10.32 14 11 C16.81480511 8.34157296 18.95682267 6.07627994 20.875 2.6875 C21.57625 1.800625 22.2775 0.91375 23 0 C26.75 -0.375 26.75 -0.375 30 0 C27.59722634 4.38152844 24.5570852 8.02959723 21.328125 11.81640625 C19.77089472 13.85674609 19.77089472 13.85674609 20.27416992 15.93652344 C21.46604938 19.32494091 23.83502835 21.92077799 26.0625 24.6875 C31 30.89137108 31 30.89137108 31 32 C26.77472788 32.96829153 26.77472788 32.96829153 24 32 C21.5876367 29.3234461 19.66203431 26.52332586 17.69921875 23.50390625 C16.24182375 20.91717334 16.24182375 20.91717334 14 20 C13.72542969 20.57234375 13.45085938 21.1446875 13.16796875 21.734375 C11.21663581 25.51956933 9.10779415 29.05355859 6 32 C2.125 32.5 2.125 32.5 -1 32 C-0.63648438 31.52691406 -0.27296875 31.05382813 0.1015625 30.56640625 C3.94631857 25.50907327 7.52778985 20.31913045 11 15 C10.2059375 14.00097656 9.411875 13.00195312 8.59375 11.97265625 C7.56237327 10.66937111 6.53113014 9.36598024 5.5 8.0625 C4.71302734 7.0734668 4.71302734 7.0734668 3.91015625 6.06445312 C0 1.11328125 0 1.11328125 0 0 Z " fill="#FBF5F3" transform="translate(542,1039)"/>
<path d="M0 0 C2.5625 1.9375 2.5625 1.9375 4 4 C4 4.66 4 5.32 4 6 C2.35 6.66 0.7 7.32 -1 8 C-1.37125 7.505 -1.7425 7.01 -2.125 6.5 C-4.74694393 4.40244486 -6.73842472 4.78256165 -10 5 C-9.96807814 7.89924502 -9.96807814 7.89924502 -9 11 C-6.34914326 12.95344804 -6.34914326 12.95344804 -3.0625 14.25 C2.88865096 16.88865096 2.88865096 16.88865096 5 19 C6.0140746 22.51025822 6.30559063 24.30840015 4.8125 27.6875 C2.34860948 30.83108445 0.42462575 32.74175968 -3.5859375 33.46875 C-12.04476999 33.56352683 -12.04476999 33.56352683 -15.6875 30.625 C-18 28 -18 28 -18 26 C-16.35 25.34 -14.7 24.68 -13 24 C-12.649375 24.495 -12.29875 24.99 -11.9375 25.5 C-9.02709013 27.75322054 -6.57033034 27.25966039 -3 27 C-2.34 26.67 -1.68 26.34 -1 26 C-1.08294273 23.59125825 -1.08294273 23.59125825 -2 21 C-4.40955497 19.23493026 -4.40955497 19.23493026 -7.375 17.9375 C-11.23841348 16.09753659 -13.82547231 14.76388348 -16 11 C-16.50476386 6.96188909 -16.69368631 4.90896826 -14.1875 1.625 C-9.65757843 -1.74008459 -5.26072252 -1.25345735 0 0 Z " fill="#FCF6F4" transform="translate(744,1039)"/>
<path d="M0 0 C1.98 0 3.96 0 6 0 C6 18.48 6 36.96 6 56 C4.02 56 2.04 56 0 56 C0 37.52 0 19.04 0 0 Z " fill="#FAF1EF" transform="translate(675,1015)"/>
<path d="M0 0 C1.98 0 3.96 0 6 0 C9.3936519 6.53695244 12.35646262 13.12696922 15 20 C15.23710693 19.42967041 15.47421387 18.85934082 15.71850586 18.27172852 C16.78895634 15.70091618 17.86317581 13.1316958 18.9375 10.5625 C19.31068359 9.66466797 19.68386719 8.76683594 20.06835938 7.84179688 C20.42607422 6.98779297 20.78378906 6.13378906 21.15234375 5.25390625 C21.48226318 4.46314697 21.81218262 3.6723877 22.15209961 2.85766602 C23 1 23 1 24 0 C25.99958364 -0.04080783 28.00045254 -0.04254356 30 0 C27.69182884 7.49170911 24.62777717 14.46566796 21.3125 21.5625 C20.80138672 22.66658203 20.29027344 23.77066406 19.76367188 24.90820312 C18.5133598 27.60747498 17.25872684 30.30464455 16 33 C12.89549829 30.37329279 11.55290465 27.3087763 9.86328125 23.65234375 C9.57897751 23.03984268 9.29467377 22.42734161 9.00175476 21.79627991 C8.40450619 20.50586155 7.81047723 19.21394875 7.21948242 17.9206543 C6.3124845 15.9374661 5.3943963 13.95970602 4.47460938 11.98242188 C0 2.28659769 0 2.28659769 0 0 Z " fill="#FBF5F3" transform="translate(962,1039)"/>
<path d="M0 0 C1.65 0 3.3 0 5 0 C5 18.48 5 36.96 5 56 C3.35 56 1.7 56 0 56 C0 37.52 0 19.04 0 0 Z " fill="#FEFEFE" transform="translate(1032,1015)"/>
<path d="M0 0 C1.65 0 3.3 0 5 0 C5 18.48 5 36.96 5 56 C3.35 56 1.7 56 0 56 C0 37.52 0 19.04 0 0 Z " fill="#FEFEFE" transform="translate(660,1015)"/>
<path d="M0 0 C1.65 0 3.3 0 5 0 C5 18.48 5 36.96 5 56 C3.35 56 1.7 56 0 56 C0 37.52 0 19.04 0 0 Z " fill="#FEFEFE" transform="translate(496,1015)"/>
<path d="M0 0 C1.24546405 2.49092811 0.7767578 3.41080733 0 6 C-1.093125 6.0825 -2.18625 6.165 -3.3125 6.25 C-6.90243134 6.68797484 -6.90243134 6.68797484 -8.875 8.5 C-10.55339918 12.22977595 -10.72889744 15.97383851 -11 20 C-11.09152344 21.14726563 -11.18304688 22.29453125 -11.27734375 23.4765625 C-11.52972252 26.65031193 -11.76933028 29.82461048 -12 33 C-13.65 33 -15.3 33 -17 33 C-17 22.44 -17 11.88 -17 1 C-15.35 1 -13.7 1 -12 1 C-11.67 1.99 -11.34 2.98 -11 4 C-10.566875 3.525625 -10.13375 3.05125 -9.6875 2.5625 C-6.71099957 -0.19351892 -3.86163376 -0.10436848 0 0 Z " fill="#FCF6F4" transform="translate(434,1038)"/>
<path d="M0 0 C1.24546405 2.49092811 0.7767578 3.41080733 0 6 C-1.093125 6.0825 -2.18625 6.165 -3.3125 6.25 C-6.95477898 6.63177253 -6.95477898 6.63177253 -8.68481445 8.72167969 C-10.20552009 11.35602627 -10.50199841 13.18028665 -10.73046875 16.203125 C-10.81103516 17.1828125 -10.89160156 18.1625 -10.97460938 19.171875 C-11.04486328 20.18765625 -11.11511719 21.2034375 -11.1875 22.25 C-11.26935547 23.28125 -11.35121094 24.3125 -11.43554688 25.375 C-11.63553294 27.91599937 -11.8232295 30.45729756 -12 33 C-13.65 33 -15.3 33 -17 33 C-17 22.44 -17 11.88 -17 1 C-15.35 1 -13.7 1 -12 1 C-11.67 1.99 -11.34 2.98 -11 4 C-10.566875 3.525625 -10.13375 3.05125 -9.6875 2.5625 C-6.71099957 -0.19351892 -3.86163376 -0.10436848 0 0 Z " fill="#FCF8F6" transform="translate(170,1038)"/>
<path d="M0 0 C1.98 0 3.96 0 6 0 C6 10.56 6 21.12 6 32 C4.02 32 2.04 32 0 32 C0 21.44 0 10.88 0 0 Z " fill="#FAF2EF" transform="translate(439,1039)"/>
<path d="M0 0 C1.65 0 3.3 0 5 0 C6 1 6 1 6.11352539 3.95922852 C6.10828857 5.25272217 6.10305176 6.54621582 6.09765625 7.87890625 C6.0962413 8.5655687 6.09482635 9.25223114 6.09336853 9.95970154 C6.08775479 12.16067801 6.07520007 14.36155409 6.0625 16.5625 C6.05748676 18.05143083 6.05292355 19.54036324 6.04882812 21.02929688 C6.03778093 24.68623075 6.02050713 28.34310558 6 32 C4.02 32 2.04 32 0 32 C0 21.44 0 10.88 0 0 Z " fill="#FAF1EE" transform="translate(263,1039)"/>
<path d="M0 0 C1.65 0 3.3 0 5 0 C5 10.56 5 21.12 5 32 C3.35 32 1.7 32 0 32 C0 21.44 0 10.88 0 0 Z " fill="#FDFDFC" transform="translate(643,1039)"/>
<path d="M0 0 C2.5 0.125 2.5 0.125 3.5 1.125 C3.625 3.625 3.625 3.625 3.5 6.125 C2.5 7.125 2.5 7.125 0 7.25 C-2.5 7.125 -2.5 7.125 -3.5 6.125 C-3.625 3.625 -3.625 3.625 -3.5 1.125 C-2.5 0.125 -2.5 0.125 0 0 Z " fill="#FCF6F4" transform="translate(645.5,1022.875)"/>
<path d="M0 0 C1.65 0.33 3.3 0.66 5 1 C5.38218767 2.65614657 5.71395102 4.32457024 6 6 C5 7 5 7 2.4375 7.0625 C1.2309375 7.0315625 1.2309375 7.0315625 0 7 C-0.66 5.68 -1.32 4.36 -2 3 C-1.34 2.01 -0.68 1.02 0 0 Z " fill="#FBF5F2" transform="translate(440,1023)"/>
<path d="M0 0 C2.625 0.375 2.625 0.375 5 1 C5.33 1.99 5.66 2.98 6 4 C5.01 5.485 5.01 5.485 4 7 C1.375 7.1875 1.375 7.1875 -1 7 C-1.625 4.625 -1.625 4.625 -2 2 C-1.34 1.34 -0.68 0.68 0 0 Z " fill="#FCF7F5" transform="translate(264,1023)"/>
</svg>
