<svg width="1639" height="75" viewBox="0 0 1639 75" fill="none" xmlns="http://www.w3.org/2000/svg">
<path d="M23.6406 72V40.5938L0.53125 3.375H12.25L26.6406 26.6719C26.9844 27.2656 27.4062 28.0469 27.9062 29.0156C28.4375 29.9844 28.9688 31.0312 29.5 32.1562C29.9375 31.0625 30.3906 30.0312 30.8594 29.0625C31.3594 28.0938 31.875 27.2031 32.4062 26.3906L47.1719 3.375H58.3281L34.7031 40.5938V72H23.6406ZM121.047 37.8281C121.047 34.3594 120.406 31.0625 119.125 27.9375C117.875 24.8125 116.062 22.0312 113.688 19.5938C111.375 17.1875 108.688 15.3438 105.625 14.0625C102.594 12.75 99.3906 12.0938 96.0156 12.0938C92.6406 12.0938 89.4219 12.7344 86.3594 14.0156C83.3281 15.2969 80.625 17.1562 78.25 19.5938C75.875 22 74.0625 24.7656 72.8125 27.8906C71.5625 31.0156 70.9375 34.3281 70.9375 37.8281C70.9375 41.2969 71.5625 44.5781 72.8125 47.6719C74.0625 50.7656 75.875 53.5312 78.25 55.9688C80.625 58.4062 83.3281 60.2656 86.3594 61.5469C89.3906 62.8281 92.6094 63.4688 96.0156 63.4688C99.3594 63.4688 102.531 62.8281 105.531 61.5469C108.562 60.2656 111.281 58.4062 113.688 55.9688C116.062 53.5312 117.875 50.7656 119.125 47.6719C120.406 44.5469 121.047 41.2656 121.047 37.8281ZM132.672 37.8281C132.672 42.7031 131.75 47.3125 129.906 51.6562C128.094 56 125.438 59.875 121.938 63.2812C118.406 66.6875 114.422 69.2969 109.984 71.1094C105.547 72.9219 100.891 73.8281 96.0156 73.8281C91.0781 73.8281 86.3594 72.9219 81.8594 71.1094C77.3906 69.2656 73.4375 66.6562 70 63.2812C66.5 59.875 63.8438 56.0156 62.0312 51.7031C60.2188 47.3906 59.3125 42.7656 59.3125 37.8281C59.3125 32.9219 60.2188 28.2969 62.0312 23.9531C63.8438 19.6094 66.5 15.7188 70 12.2812C73.5 8.875 77.4688 6.28125 81.9062 4.5C86.3438 2.71875 91.0469 1.82812 96.0156 1.82812C100.953 1.82812 105.625 2.71875 110.031 4.5C114.469 6.28125 118.438 8.875 121.938 12.2812C125.438 15.75 128.094 19.6719 129.906 24.0469C131.75 28.3906 132.672 32.9844 132.672 37.8281ZM145.188 3.375H156.203V45.0469C156.203 51.2344 157.625 55.8906 160.469 59.0156C163.344 62.1094 167.625 63.6562 173.312 63.6562C178.969 63.6562 183.219 62.1094 186.062 59.0156C188.938 55.8906 190.375 51.2344 190.375 45.0469V3.375H201.531V46.0781C201.531 55.3594 199.188 62.3125 194.5 66.9375C189.812 71.5312 182.75 73.8281 173.312 73.8281C163.875 73.8281 156.828 71.5312 152.172 66.9375C147.516 62.3438 145.188 55.3906 145.188 46.0781V3.375ZM228.062 32.625H230.078C235.984 32.625 239.906 31.9375 241.844 30.5625C243.781 29.1875 244.75 26.75 244.75 23.25C244.75 19.4688 243.703 16.8125 241.609 15.2812C239.547 13.7188 235.703 12.9375 230.078 12.9375H228.062V32.625ZM227.359 41.2969V72H216.906V3.375H232.469C237.031 3.375 240.562 3.67187 243.062 4.26562C245.594 4.85938 247.75 5.84375 249.531 7.21875C251.656 8.875 253.297 11.0156 254.453 13.6406C255.609 16.2656 256.188 19.1406 256.188 22.2656C256.188 27.7656 254.859 32.0781 252.203 35.2031C249.547 38.2969 245.625 40.1562 240.438 40.7812L264.062 72H251.453L228.625 41.2969H227.359ZM337.703 36.8438H364.891C364.891 37.3125 364.906 37.9688 364.938 38.8125C365.031 41.0312 365.078 42.5312 365.078 43.3125C365.078 52.9688 362.312 60.4688 356.781 65.8125C351.25 71.1562 343.453 73.8281 333.391 73.8281C327.766 73.8281 322.75 73 318.344 71.3438C313.938 69.6875 310.078 67.1875 306.766 63.8438C303.516 60.5312 301.016 56.6406 299.266 52.1719C297.547 47.7031 296.688 42.9219 296.688 37.8281C296.688 32.6406 297.562 27.8594 299.312 23.4844C301.094 19.1094 303.719 15.25 307.188 11.9062C310.531 8.625 314.453 6.125 318.953 4.40625C323.453 2.6875 328.266 1.82812 333.391 1.82812C338.797 1.82812 343.625 2.8125 347.875 4.78125C352.156 6.75 355.969 9.76562 359.312 13.8281L351.156 19.9688C348.844 17.2812 346.234 15.2812 343.328 13.9688C340.422 12.6562 337.172 12 333.578 12C326.141 12 320.062 14.3906 315.344 19.1719C310.656 23.9219 308.312 30.1094 308.312 37.7344C308.312 45.4844 310.656 51.7812 315.344 56.625C320.062 61.4375 326.172 63.8438 333.672 63.8438C340.047 63.8438 345.062 62.3594 348.719 59.3906C352.375 56.4219 354.203 52.375 354.203 47.25V46.2656H337.703V36.8438ZM391.328 45.0469H410.453L403.422 29.3906C403.016 28.3906 402.594 27.25 402.156 25.9688C401.719 24.6562 401.281 23.2031 400.844 21.6094C400.469 23.1094 400.062 24.5156 399.625 25.8281C399.219 27.1094 398.797 28.2969 398.359 29.3906L391.328 45.0469ZM422.172 72L414.391 54.3281H387.203L379.234 72H367.516L400.75 0.65625L433.938 72H422.172ZM457.328 12.8438V72H446.172V12.8438H427.938V3.375H475.469V12.8438H457.328ZM484 72V3.375H522.297V12.8438H495.156V30.0469H522.297V39.8438H495.156V62.0156H522.297V72H484ZM526.938 3.375H537.953L550.938 38.0156C551.781 40.2969 552.484 42.2969 553.047 44.0156C553.641 45.7344 554.156 47.3438 554.594 48.8438C555.688 45.2188 556.828 41.6719 558.016 38.2031C558.172 37.7656 558.281 37.4688 558.344 37.3125L572.125 0.65625L586.656 38.0156C587.344 39.8281 587.984 41.6406 588.578 43.4531C589.203 45.2656 589.781 47.0938 590.312 48.9375C590.625 47.5312 591.047 45.9844 591.578 44.2969C592.109 42.6094 592.797 40.6094 593.641 38.2969L606.531 3.375H617.641L591.062 74.6719L575.406 35.5312C574.719 33.7812 574.094 32.1094 573.531 30.5156C572.969 28.8906 572.469 27.3594 572.031 25.9219C571.5 27.7656 570.969 29.5 570.438 31.125C569.906 32.7188 569.359 34.25 568.797 35.7188L553.422 74.6719L526.938 3.375ZM638.078 45.0469H657.203L650.172 29.3906C649.766 28.3906 649.344 27.25 648.906 25.9688C648.469 24.6562 648.031 23.2031 647.594 21.6094C647.219 23.1094 646.812 24.5156 646.375 25.8281C645.969 27.1094 645.547 28.2969 645.109 29.3906L638.078 45.0469ZM668.922 72L661.141 54.3281H633.953L625.984 72H614.266L647.5 0.65625L680.688 72H668.922ZM696.672 72V40.5938L673.562 3.375H685.281L699.672 26.6719C700.016 27.2656 700.438 28.0469 700.938 29.0156C701.469 29.9844 702 31.0312 702.531 32.1562C702.969 31.0625 703.422 30.0312 703.891 29.0625C704.391 28.0938 704.906 27.2031 705.438 26.3906L720.203 3.375H731.359L707.734 40.5938V72H696.672ZM789.953 12.8438V72H778.797V12.8438H760.562V3.375H808.094V12.8438H789.953ZM871.891 37.8281C871.891 34.3594 871.25 31.0625 869.969 27.9375C868.719 24.8125 866.906 22.0312 864.531 19.5938C862.219 17.1875 859.531 15.3438 856.469 14.0625C853.438 12.75 850.234 12.0938 846.859 12.0938C843.484 12.0938 840.266 12.7344 837.203 14.0156C834.172 15.2969 831.469 17.1562 829.094 19.5938C826.719 22 824.906 24.7656 823.656 27.8906C822.406 31.0156 821.781 34.3281 821.781 37.8281C821.781 41.2969 822.406 44.5781 823.656 47.6719C824.906 50.7656 826.719 53.5312 829.094 55.9688C831.469 58.4062 834.172 60.2656 837.203 61.5469C840.234 62.8281 843.453 63.4688 846.859 63.4688C850.203 63.4688 853.375 62.8281 856.375 61.5469C859.406 60.2656 862.125 58.4062 864.531 55.9688C866.906 53.5312 868.719 50.7656 869.969 47.6719C871.25 44.5469 871.891 41.2656 871.891 37.8281ZM883.516 37.8281C883.516 42.7031 882.594 47.3125 880.75 51.6562C878.938 56 876.281 59.875 872.781 63.2812C869.25 66.6875 865.266 69.2969 860.828 71.1094C856.391 72.9219 851.734 73.8281 846.859 73.8281C841.922 73.8281 837.203 72.9219 832.703 71.1094C828.234 69.2656 824.281 66.6562 820.844 63.2812C817.344 59.875 814.688 56.0156 812.875 51.7031C811.062 47.3906 810.156 42.7656 810.156 37.8281C810.156 32.9219 811.062 28.2969 812.875 23.9531C814.688 19.6094 817.344 15.7188 820.844 12.2812C824.344 8.875 828.312 6.28125 832.75 4.5C837.188 2.71875 841.891 1.82812 846.859 1.82812C851.797 1.82812 856.469 2.71875 860.875 4.5C865.312 6.28125 869.281 8.875 872.781 12.2812C876.281 15.75 878.938 19.6719 880.75 24.0469C882.594 28.3906 883.516 32.9844 883.516 37.8281ZM936.438 32.625H938.453C944.359 32.625 948.281 31.9375 950.219 30.5625C952.156 29.1875 953.125 26.75 953.125 23.25C953.125 19.4688 952.078 16.8125 949.984 15.2812C947.922 13.7188 944.078 12.9375 938.453 12.9375H936.438V32.625ZM935.734 41.2969V72H925.281V3.375H940.844C945.406 3.375 948.938 3.67187 951.438 4.26562C953.969 4.85938 956.125 5.84375 957.906 7.21875C960.031 8.875 961.672 11.0156 962.828 13.6406C963.984 16.2656 964.562 19.1406 964.562 22.2656C964.562 27.7656 963.234 32.0781 960.578 35.2031C957.922 38.2969 954 40.1562 948.812 40.7812L972.438 72H959.828L937 41.2969H935.734ZM979.094 72V3.375H1017.39V12.8438H990.25V30.0469H1017.39V39.8438H990.25V62.0156H1017.39V72H979.094ZM1030.19 72V3.375H1068.48V12.8438H1041.34V29.9531H1068.48V39.75H1041.34V72H1030.19ZM1080.81 72V3.375H1091.97V72H1080.81ZM1108 72V0.65625L1151.59 42.6094C1152.78 43.7969 1153.98 45.0625 1155.2 46.4062C1156.42 47.75 1157.7 49.2656 1159.05 50.9531V3.375H1169.36V74.6719L1124.88 31.9688C1123.69 30.8125 1122.53 29.5938 1121.41 28.3125C1120.31 27.0312 1119.27 25.6875 1118.27 24.2812V72H1108ZM1185.16 72V3.375H1223.45V12.8438H1196.31V30.0469H1223.45V39.8438H1196.31V62.0156H1223.45V72H1185.16ZM1247.41 61.9219H1256.78C1261.94 61.9219 1265.8 61.5781 1268.36 60.8906C1270.95 60.2031 1273.2 59.0469 1275.11 57.4219C1277.7 55.2031 1279.64 52.4531 1280.92 49.1719C1282.23 45.8594 1282.89 42.0156 1282.89 37.6406C1282.89 33.2656 1282.23 29.4375 1280.92 26.1562C1279.64 22.8438 1277.7 20.0781 1275.11 17.8594C1273.17 16.2344 1270.84 15.0781 1268.12 14.3906C1265.44 13.7031 1261.22 13.3594 1255.47 13.3594H1251.44H1247.41V61.9219ZM1236.25 72V3.375H1251.3C1261.08 3.375 1267.95 3.875 1271.92 4.875C1275.92 5.84375 1279.42 7.48438 1282.42 9.79688C1286.39 12.8281 1289.39 16.7188 1291.42 21.4688C1293.48 26.2188 1294.52 31.6406 1294.52 37.7344C1294.52 43.8281 1293.48 49.2344 1291.42 53.9531C1289.39 58.6406 1286.39 62.5156 1282.42 65.5781C1279.42 67.8906 1276 69.5469 1272.16 70.5469C1268.34 71.5156 1262.39 72 1254.3 72H1251.3H1236.25ZM1336.28 72V3.375H1347.44V62.0156H1372.38V72H1336.28ZM1381.66 72V3.375H1392.81V72H1381.66ZM1430.64 74.6719L1400.03 3.375H1411.61L1426.98 39.9375C1427.89 42.0625 1428.64 44.0312 1429.23 45.8438C1429.83 47.625 1430.3 49.3281 1430.64 50.9531C1431.05 49.2344 1431.56 47.4531 1432.19 45.6094C1432.81 43.7656 1433.55 41.875 1434.39 39.9375L1449.72 3.375H1461.25L1430.64 74.6719ZM1468.38 72V3.375H1479.53V72H1468.38ZM1495.56 72V0.65625L1539.16 42.6094C1540.34 43.7969 1541.55 45.0625 1542.77 46.4062C1543.98 47.75 1545.27 49.2656 1546.61 50.9531V3.375H1556.92V74.6719L1512.44 31.9688C1511.25 30.8125 1510.09 29.5938 1508.97 28.3125C1507.88 27.0312 1506.83 25.6875 1505.83 24.2812V72H1495.56ZM1610.73 36.8438H1637.92C1637.92 37.3125 1637.94 37.9688 1637.97 38.8125C1638.06 41.0312 1638.11 42.5312 1638.11 43.3125C1638.11 52.9688 1635.34 60.4688 1629.81 65.8125C1624.28 71.1562 1616.48 73.8281 1606.42 73.8281C1600.8 73.8281 1595.78 73 1591.38 71.3438C1586.97 69.6875 1583.11 67.1875 1579.8 63.8438C1576.55 60.5312 1574.05 56.6406 1572.3 52.1719C1570.58 47.7031 1569.72 42.9219 1569.72 37.8281C1569.72 32.6406 1570.59 27.8594 1572.34 23.4844C1574.12 19.1094 1576.75 15.25 1580.22 11.9062C1583.56 8.625 1587.48 6.125 1591.98 4.40625C1596.48 2.6875 1601.3 1.82812 1606.42 1.82812C1611.83 1.82812 1616.66 2.8125 1620.91 4.78125C1625.19 6.75 1629 9.76562 1632.34 13.8281L1624.19 19.9688C1621.88 17.2812 1619.27 15.2812 1616.36 13.9688C1613.45 12.6562 1610.2 12 1606.61 12C1599.17 12 1593.09 14.3906 1588.38 19.1719C1583.69 23.9219 1581.34 30.1094 1581.34 37.7344C1581.34 45.4844 1583.69 51.7812 1588.38 56.625C1593.09 61.4375 1599.2 63.8438 1606.7 63.8438C1613.08 63.8438 1618.09 62.3594 1621.75 59.3906C1625.41 56.4219 1627.23 52.375 1627.23 47.25V46.2656H1610.73V36.8438Z" fill="white"/>
</svg>
